<?xml version="1.0" standalone="no"?>
<!DOCTYPE svg PUBLIC "-//W3C//DTD SVG 20010904//EN"
 "http://www.w3.org/TR/2001/REC-SVG-20010904/DTD/svg10.dtd">
<svg version="1.0" xmlns="http://www.w3.org/2000/svg"
 width="199.000000pt" height="50.000000pt" viewBox="0 0 199.000000 50.000000"
 preserveAspectRatio="xMidYMid meet">

<g transform="translate(0.000000,50.000000) scale(0.100000,-0.100000)"
fill="#0c8cfc" stroke="none">
<path d="M107 443 c-4 -3 -7 -98 -7 -210 l0 -203 35 0 35 0 0 175 0 175 155 0
155 0 0 35 0 35 -183 0 c-101 0 -187 -3 -190 -7z"/>
<path d="M1001 429 c-35 -32 -41 -61 -41 -185 0 -202 14 -214 248 -214 109 0
162 4 170 12 15 15 16 191 2 219 -10 17 -22 19 -140 19 l-130 0 0 -35 0 -35
105 0 105 0 0 -55 0 -55 -133 0 c-90 0 -137 4 -145 12 -13 13 -18 222 -6 252
5 14 30 16 175 16 l169 0 0 35 0 35 -178 0 c-167 0 -180 -1 -201 -21z"/>
<path d="M1487 443 c-4 -3 -7 -98 -7 -210 l0 -203 35 0 35 0 0 175 0 175 140
0 140 0 0 -49 c0 -42 -4 -53 -26 -70 -23 -18 -41 -21 -120 -21 l-94 0 0 -35
c0 -31 3 -35 26 -35 18 0 53 -22 110 -71 81 -69 84 -70 134 -67 l51 3 -77 65
-77 64 40 13 c22 8 53 27 69 44 25 26 29 39 32 104 4 68 2 76 -21 99 -26 26
-26 26 -205 26 -98 0 -182 -3 -185 -7z"/>
<path d="M588 334 c-41 -22 -58 -63 -58 -143 0 -133 31 -161 180 -161 144 0
180 32 180 160 0 73 -17 119 -53 140 -41 25 -206 28 -249 4z m222 -73 c5 -11
10 -43 10 -71 0 -85 -7 -90 -108 -90 -55 0 -92 4 -100 12 -7 7 -12 40 -12 78
0 38 5 71 12 78 8 8 45 12 100 12 76 0 89 -2 98 -19z"/>
<path d="M210 245 l0 -35 120 0 120 0 0 35 0 35 -120 0 -120 0 0 -35z"/>
</g>
</svg>
