<svg id="svg" version="1.1" xmlns="http://www.w3.org/2000/svg" xmlns:xlink="http://www.w3.org/1999/xlink" width="400" height="81.79054987565625" viewBox="0, 0, 400,81.79054987565625"><g id="svgg"><path id="path0" d="M177.000 31.667 L 177.000 54.500 179.583 54.500 L 182.167 54.500 182.173 43.875 C 182.179 33.287,182.208 32.627,182.747 31.083 C 185.034 24.532,194.309 23.532,197.229 29.522 C 198.172 31.457,198.163 31.314,198.165 43.375 L 198.167 54.500 200.833 54.500 L 203.500 54.500 203.495 43.792 C 203.489 32.048,203.431 31.108,202.529 28.219 C 199.963 20.003,188.282 18.126,182.809 25.050 L 182.167 25.863 182.167 17.348 L 182.167 8.833 179.583 8.833 L 177.000 8.833 177.000 31.667 M259.500 31.667 L 259.500 54.500 262.083 54.500 L 264.667 54.500 264.667 45.988 C 264.667 39.064,264.706 37.517,264.880 37.696 C 264.998 37.818,265.728 38.704,266.503 39.667 C 267.278 40.629,268.005 41.529,268.118 41.667 C 268.231 41.804,268.822 42.554,269.432 43.333 C 270.042 44.112,270.738 44.983,270.979 45.268 C 271.220 45.553,271.531 45.928,271.670 46.101 C 271.809 46.275,272.856 47.579,273.997 49.000 C 275.137 50.421,276.148 51.670,276.243 51.777 C 276.339 51.883,276.867 52.535,277.417 53.224 L 278.417 54.478 281.708 54.489 C 283.519 54.495,285.000 54.436,285.000 54.359 C 285.000 54.227,284.873 54.063,283.947 53.000 C 283.747 52.771,283.323 52.246,283.004 51.833 C 282.686 51.421,282.385 51.046,282.335 51.000 C 282.286 50.954,281.910 50.504,281.500 50.000 C 281.090 49.496,280.714 49.046,280.665 49.000 C 280.615 48.954,279.905 48.092,279.086 47.083 C 278.267 46.075,277.555 45.212,277.505 45.167 C 277.454 45.121,277.077 44.671,276.667 44.167 C 276.257 43.663,275.883 43.212,275.835 43.167 C 275.788 43.121,275.115 42.296,274.339 41.333 C 273.563 40.371,272.888 39.546,272.837 39.500 C 272.787 39.454,272.409 39.004,271.998 38.500 C 271.588 37.996,271.045 37.358,270.793 37.083 C 270.163 36.396,270.148 36.430,271.854 34.660 C 272.691 33.793,274.098 32.333,274.981 31.417 C 275.863 30.500,278.273 28.001,280.334 25.863 C 282.396 23.725,284.108 21.868,284.137 21.738 C 284.244 21.267,277.913 21.402,277.451 21.880 C 277.249 22.089,275.996 23.418,274.667 24.835 C 273.337 26.251,271.912 27.750,271.500 28.166 C 271.087 28.582,269.625 30.118,268.250 31.580 C 266.875 33.041,265.506 34.486,265.208 34.791 L 264.667 35.344 264.667 22.089 L 264.667 8.833 262.083 8.833 L 259.500 8.833 259.500 31.667 M212.472 10.152 C 209.356 11.710,210.143 16.432,213.578 16.784 C 215.884 17.020,217.500 15.529,217.500 13.165 C 217.500 10.729,214.688 9.044,212.472 10.152 M141.833 12.750 L 141.833 15.167 147.833 15.167 L 153.833 15.167 153.833 34.833 L 153.833 54.500 156.500 54.500 L 159.167 54.500 159.167 34.833 L 159.167 15.167 165.083 15.167 L 171.000 15.167 171.000 12.750 L 171.000 10.333 156.417 10.333 L 141.833 10.333 141.833 12.750 M236.500 21.224 C 234.086 21.945,232.003 23.362,230.460 25.333 L 230.004 25.917 230.002 23.708 L 230.000 21.500 227.500 21.500 L 225.000 21.500 225.000 38.000 L 225.000 54.500 227.576 54.500 L 230.151 54.500 230.205 43.375 C 230.258 32.307,230.260 32.245,230.635 31.202 C 233.433 23.425,244.280 23.731,245.933 31.633 C 246.120 32.525,246.167 34.940,246.167 43.625 L 246.167 54.500 248.750 54.500 L 251.333 54.500 251.330 43.375 C 251.327 30.116,251.299 29.846,249.624 26.377 C 247.534 22.050,241.574 19.710,236.500 21.224 M211.444 21.611 C 211.383 21.672,211.333 29.097,211.333 38.111 L 211.333 54.500 213.917 54.500 L 216.500 54.500 216.500 38.000 L 216.500 21.500 214.028 21.500 C 212.668 21.500,211.506 21.550,211.444 21.611 M215.833 67.779 L 215.833 70.225 215.458 69.882 C 214.328 68.849,211.978 68.566,210.568 69.295 C 207.122 71.074,207.352 77.108,210.917 78.451 C 212.346 78.989,213.864 78.848,215.021 78.069 L 215.833 77.523 215.833 78.011 C 215.833 78.487,215.856 78.500,216.667 78.500 L 217.500 78.500 217.500 71.917 L 217.500 65.333 216.667 65.333 L 215.833 65.333 215.833 67.779 M318.333 67.741 C 318.333 70.348,318.336 70.338,317.785 69.822 C 316.804 68.905,314.512 68.610,313.131 69.224 C 308.931 71.091,310.082 78.431,314.614 78.686 C 316.161 78.773,316.614 78.679,317.483 78.095 L 318.333 77.523 318.333 78.011 C 318.333 78.487,318.356 78.500,319.169 78.500 L 320.004 78.500 319.960 71.958 L 319.917 65.417 319.125 65.366 L 318.333 65.315 318.333 67.741 M204.667 72.167 L 204.667 78.500 205.500 78.500 L 206.333 78.500 206.333 72.167 L 206.333 65.833 205.500 65.833 L 204.667 65.833 204.667 72.167 M251.167 72.149 L 251.167 78.500 252.000 78.500 L 252.833 78.500 252.833 75.939 L 252.833 73.378 254.458 73.299 C 257.265 73.163,258.500 71.996,258.500 69.481 C 258.500 66.865,257.265 65.947,253.625 65.858 L 251.167 65.797 251.167 72.149 M326.833 72.160 L 326.833 78.528 329.625 78.472 L 332.417 78.417 333.187 77.882 C 335.047 76.590,335.203 73.632,333.481 72.285 L 332.953 71.872 333.464 71.228 C 334.526 69.887,334.517 68.084,333.443 66.955 C 332.603 66.072,332.164 65.955,329.375 65.870 L 326.833 65.793 326.833 72.160 M350.167 72.164 L 350.167 78.544 352.792 78.463 C 356.212 78.357,357.383 77.872,358.810 75.971 C 360.772 73.359,359.596 68.068,356.750 66.697 C 355.367 66.030,355.022 65.961,352.625 65.874 L 350.167 65.785 350.167 72.164 M370.667 68.083 L 370.667 69.000 370.083 69.000 C 369.503 69.000,369.500 69.004,369.500 69.750 C 369.500 70.492,369.506 70.500,370.068 70.500 L 370.635 70.500 370.693 73.625 C 370.768 77.741,371.273 78.667,373.441 78.667 L 374.333 78.667 374.333 77.917 L 374.333 77.167 373.692 77.167 C 372.517 77.167,372.425 76.912,372.362 73.483 L 372.306 70.500 373.320 70.500 L 374.333 70.500 374.333 69.750 L 374.333 69.000 373.333 69.000 L 372.333 69.000 372.333 68.083 L 372.333 67.167 371.500 67.167 L 370.667 67.167 370.667 68.083 M255.547 67.560 C 256.479 67.955,256.750 68.407,256.747 69.559 C 256.743 71.201,255.981 71.833,254.008 71.833 L 252.833 71.833 252.833 69.583 L 252.833 67.333 253.922 67.333 C 254.521 67.333,255.252 67.435,255.547 67.560 M331.678 67.711 C 333.552 68.974,332.471 71.167,329.976 71.167 L 328.500 71.167 328.500 69.250 L 328.500 67.333 329.809 67.333 C 330.893 67.333,331.214 67.398,331.678 67.711 M354.643 67.575 C 356.815 68.153,357.992 69.779,357.997 72.207 C 358.004 75.331,356.035 77.167,352.676 77.167 L 351.833 77.167 351.833 72.250 L 351.833 67.333 352.792 67.335 C 353.319 67.336,354.152 67.444,354.643 67.575 M222.583 68.978 C 218.328 70.094,217.774 76.437,221.768 78.327 C 223.569 79.179,226.056 78.760,227.451 77.369 C 228.129 76.694,228.128 76.669,227.422 76.212 C 226.878 75.859,226.837 75.855,226.632 76.135 C 225.044 78.311,220.887 77.227,220.841 74.625 L 220.833 74.167 224.524 74.167 L 228.215 74.167 228.119 73.042 C 227.861 70.036,225.411 68.237,222.583 68.978 M231.917 68.979 C 231.198 69.113,229.667 69.750,229.667 69.916 C 229.667 70.007,230.151 71.015,230.252 71.133 C 230.275 71.161,230.577 71.024,230.923 70.830 C 232.921 69.708,235.074 70.479,235.289 72.393 L 235.376 73.157 234.696 72.828 C 231.371 71.222,227.753 74.610,229.754 77.456 C 230.603 78.665,233.373 79.168,234.741 78.361 C 235.214 78.082,235.333 78.061,235.333 78.256 C 235.333 78.434,235.535 78.500,236.083 78.500 L 236.833 78.500 236.833 74.911 C 236.833 69.446,235.841 68.248,231.917 68.979 M240.520 68.991 C 238.098 69.605,237.901 72.877,240.226 73.898 C 242.111 74.725,242.455 74.902,242.792 75.212 C 243.028 75.430,243.165 75.748,243.161 76.071 C 243.146 77.586,241.006 77.893,239.826 76.550 C 239.348 76.005,239.323 75.997,238.845 76.244 C 238.152 76.603,238.130 76.702,238.596 77.388 C 240.304 79.901,244.833 78.840,244.833 75.927 C 244.833 74.487,244.261 73.864,242.136 72.987 C 240.236 72.204,239.745 71.515,240.505 70.700 C 241.212 69.941,242.273 70.027,243.059 70.908 L 243.551 71.458 244.118 71.124 C 244.481 70.910,244.652 70.702,244.593 70.548 C 244.542 70.415,244.500 70.241,244.500 70.161 C 244.500 69.421,241.872 68.648,240.520 68.991 M263.167 68.986 C 259.321 69.874,258.086 74.994,261.083 77.631 C 261.521 78.017,262.005 78.333,262.157 78.333 C 262.309 78.333,262.517 78.417,262.620 78.520 C 262.907 78.807,265.634 78.755,266.333 78.449 C 270.107 76.800,270.404 71.226,266.816 69.408 C 265.938 68.963,264.159 68.757,263.167 68.986 M288.417 68.986 C 284.148 70.170,283.628 76.457,287.644 78.344 C 290.126 79.511,295.145 77.574,293.208 76.197 L 292.750 75.871 292.044 76.497 C 290.082 78.240,286.694 77.008,286.670 74.542 L 286.667 74.167 290.333 74.167 L 294.000 74.167 294.000 73.180 C 294.000 70.291,291.226 68.207,288.417 68.986 M298.776 69.076 C 298.423 69.202,297.955 69.474,297.734 69.682 L 297.333 70.058 297.333 69.529 C 297.333 69.005,297.325 69.000,296.500 69.000 L 295.667 69.000 295.667 73.750 L 295.667 78.500 296.500 78.500 L 297.333 78.500 297.333 75.728 C 297.333 71.796,297.888 70.500,299.572 70.500 C 299.974 70.500,300.000 70.450,300.000 69.667 C 300.000 68.727,299.897 68.677,298.776 69.076 M303.917 68.980 C 299.699 70.096,299.144 76.455,303.101 78.327 C 304.442 78.961,306.979 78.838,307.982 78.089 C 308.396 77.781,309.333 76.813,309.331 76.696 C 309.324 76.317,308.177 75.846,307.966 76.135 C 306.377 78.311,302.220 77.227,302.175 74.625 L 302.167 74.167 305.833 74.167 L 309.500 74.167 309.500 73.156 C 309.500 70.274,306.762 68.226,303.917 68.980 M363.583 68.980 C 362.865 69.113,361.333 69.750,361.333 69.916 C 361.333 70.007,361.817 71.015,361.918 71.133 C 361.942 71.161,362.251 71.016,362.605 70.813 C 364.486 69.733,366.833 70.534,366.833 72.255 L 366.833 73.004 366.230 72.752 C 363.657 71.678,360.905 73.196,360.926 75.678 C 360.946 78.148,363.859 79.601,366.292 78.356 C 366.878 78.056,367.000 78.037,367.000 78.247 C 367.000 78.436,367.190 78.500,367.750 78.500 L 368.500 78.500 368.495 74.875 C 368.488 69.526,367.438 68.265,363.583 68.980 M377.917 68.979 C 377.129 69.126,375.666 69.757,375.667 69.949 C 375.668 70.023,375.814 70.322,375.992 70.614 L 376.315 71.145 377.029 70.800 C 379.299 69.704,381.333 70.547,381.333 72.586 L 381.333 73.131 380.715 72.815 C 377.564 71.209,373.838 74.575,375.736 77.313 C 376.687 78.686,379.258 79.235,380.714 78.377 C 381.200 78.090,381.324 78.069,381.399 78.263 C 381.459 78.420,381.746 78.500,382.245 78.500 L 383.000 78.500 383.000 75.342 C 383.000 69.604,381.907 68.236,377.917 68.979 M269.846 69.208 C 269.853 69.323,270.548 71.442,271.391 73.917 L 272.925 78.417 273.852 78.466 L 274.780 78.515 275.916 75.091 C 276.541 73.208,277.097 71.667,277.151 71.668 C 277.206 71.669,277.745 73.188,278.350 75.043 L 279.450 78.417 280.367 78.466 L 281.284 78.515 282.132 75.966 C 282.940 73.535,284.183 69.914,284.423 69.292 C 284.522 69.035,284.424 69.000,283.614 69.000 L 282.693 69.000 281.750 71.958 C 280.855 74.763,280.683 75.299,280.419 76.083 C 280.304 76.429,279.978 75.538,278.577 71.042 L 277.941 69.000 277.166 69.000 L 276.390 69.000 275.163 72.679 L 273.935 76.358 273.242 74.221 C 272.860 73.045,272.331 71.390,272.066 70.542 L 271.583 69.001 270.708 69.000 C 270.113 69.000,269.837 69.067,269.846 69.208 M335.333 69.252 C 335.333 69.391,335.401 69.635,335.484 69.794 C 335.687 70.183,336.359 71.788,337.001 73.417 C 337.521 74.736,337.649 75.041,338.292 76.500 C 338.964 78.028,339.073 78.466,338.882 78.869 C 338.671 79.313,338.306 80.156,337.941 81.042 L 337.684 81.667 338.589 81.667 C 339.438 81.667,339.500 81.639,339.603 81.208 C 339.663 80.956,339.767 80.675,339.833 80.583 C 339.899 80.492,340.536 78.917,341.248 77.083 C 341.960 75.250,342.683 73.432,342.855 73.043 C 343.026 72.655,343.167 72.275,343.167 72.200 C 343.167 72.124,343.317 71.752,343.500 71.373 C 343.683 70.993,343.833 70.613,343.833 70.527 C 343.833 70.441,343.945 70.157,344.082 69.894 C 344.503 69.087,344.426 68.977,343.472 69.033 L 342.611 69.083 342.250 70.083 C 341.825 71.256,341.685 71.630,341.501 72.083 C 341.374 72.395,340.670 74.262,340.128 75.724 L 339.891 76.365 339.596 75.558 C 339.434 75.113,339.159 74.432,338.984 74.043 C 338.810 73.655,338.667 73.258,338.667 73.160 C 338.667 73.063,338.517 72.673,338.333 72.294 C 338.150 71.915,338.000 71.542,338.000 71.467 C 338.000 71.342,337.571 70.320,337.122 69.375 C 336.900 68.909,335.333 68.801,335.333 69.252 M225.081 70.593 C 225.721 70.897,226.500 72.021,226.500 72.640 C 226.500 72.995,226.460 73.000,223.667 73.000 C 221.869 73.000,220.833 72.938,220.833 72.832 C 220.833 71.023,223.275 69.736,225.081 70.593 M290.350 70.356 C 291.340 70.687,292.333 71.840,292.333 72.658 C 292.333 72.989,292.245 73.000,289.529 73.000 L 286.724 73.000 286.797 72.502 C 287.008 71.065,288.954 69.889,290.350 70.356 M306.414 70.593 C 307.054 70.897,307.833 72.021,307.833 72.640 C 307.833 72.995,307.793 73.000,305.000 73.000 C 303.202 73.000,302.167 72.938,302.167 72.832 C 302.167 71.023,304.608 69.736,306.414 70.593 M213.936 70.581 C 216.601 71.694,216.429 76.402,213.695 77.162 C 211.482 77.776,209.917 76.369,209.917 73.765 C 209.917 71.193,211.811 69.693,213.936 70.581 M265.370 70.507 C 267.941 71.221,268.469 75.296,266.179 76.742 C 263.852 78.211,261.167 76.652,261.167 73.833 C 261.167 71.349,263.046 69.862,265.370 70.507 M316.977 70.963 C 319.441 72.957,318.262 77.250,315.250 77.250 C 313.405 77.250,312.276 75.985,312.272 73.917 C 312.267 70.999,314.945 69.318,316.977 70.963 M332.109 73.126 C 334.184 74.603,332.674 77.167,329.730 77.167 L 328.500 77.167 328.500 74.894 L 328.500 72.621 330.065 72.703 C 331.284 72.767,331.737 72.860,332.109 73.126 M234.219 74.026 C 235.715 74.818,235.621 76.503,234.043 77.202 C 232.224 78.006,230.253 76.438,231.079 74.842 C 231.543 73.945,233.235 73.505,234.219 74.026 M366.212 74.345 C 367.391 75.317,366.954 76.799,365.329 77.335 C 363.644 77.891,361.987 76.308,362.737 74.858 C 363.327 73.718,365.129 73.452,366.212 74.345 M380.317 74.075 C 381.349 74.608,381.631 75.787,380.927 76.624 C 379.348 78.500,376.118 76.882,377.181 74.747 C 377.588 73.929,379.319 73.559,380.317 74.075 " stroke="none" fill="#383e67" fill-rule="evenodd"></path><path id="path1" d="M388.702 1.292 C 388.048 2.975,386.926 5.914,386.317 7.542 C 386.051 8.252,385.608 9.415,385.332 10.125 C 384.644 11.900,384.612 11.833,386.146 11.833 C 387.586 11.833,387.641 11.801,387.977 10.750 C 388.094 10.383,388.269 9.877,388.365 9.625 L 388.540 9.167 390.645 9.168 L 392.750 9.170 393.180 10.460 L 393.609 11.750 395.068 11.798 C 396.756 11.854,396.681 12.063,395.805 9.750 C 395.117 7.932,394.785 7.034,394.082 5.083 C 393.752 4.167,393.418 3.267,393.340 3.083 C 393.262 2.900,392.958 2.131,392.664 1.375 L 392.129 0.000 390.667 0.000 L 389.204 0.000 388.702 1.292 M397.333 5.917 L 397.333 11.833 398.667 11.833 L 400.000 11.833 400.000 5.917 L 400.000 0.000 398.667 0.000 L 397.333 0.000 397.333 5.917 M391.152 4.626 C 391.374 5.336,391.607 5.992,391.670 6.083 C 392.194 6.841,392.020 7.000,390.663 7.000 L 389.357 7.000 389.495 6.542 C 389.930 5.099,390.566 3.333,390.651 3.334 C 390.706 3.335,390.931 3.916,391.152 4.626 M7.637 4.504 C 6.530 4.824,6.009 5.072,4.636 5.933 C 3.907 6.390,1.833 8.416,1.833 8.671 C 1.833 8.747,1.739 8.909,1.624 9.030 C 0.270 10.455,-0.459 15.072,0.266 17.641 C 0.884 19.836,3.550 23.667,4.459 23.667 C 4.560 23.667,4.742 23.765,4.863 23.885 C 6.987 25.992,14.300 25.989,16.470 23.881 C 16.591 23.763,16.753 23.667,16.829 23.667 C 17.714 23.667,20.361 19.978,20.988 17.873 C 23.369 9.879,15.678 2.178,7.637 4.504 M32.750 4.250 C 32.658 4.281,32.048 4.466,31.393 4.661 C 23.633 6.976,21.529 17.207,27.647 22.872 C 31.846 26.759,39.693 26.244,42.955 21.867 C 43.208 21.528,43.463 21.212,43.522 21.167 C 43.773 20.972,44.859 18.811,45.123 17.983 C 46.047 15.086,45.120 10.188,43.281 8.250 C 43.107 8.067,42.852 7.748,42.713 7.541 C 41.260 5.377,35.262 3.395,32.750 4.250 M56.566 4.412 C 49.489 6.144,46.166 14.702,50.224 20.741 C 55.918 29.215,69.047 25.886,69.912 15.750 C 70.534 8.455,63.715 2.662,56.566 4.412 M33.250 29.580 C 27.048 30.564,22.936 36.360,24.263 42.250 C 24.679 44.102,24.699 44.167,24.853 44.262 C 24.934 44.312,25.000 44.456,25.000 44.582 C 25.000 45.637,27.688 48.620,29.495 49.569 C 39.611 54.885,50.017 43.550,43.655 34.145 C 43.000 33.177,41.411 31.510,41.137 31.503 C 41.075 31.501,40.923 31.406,40.801 31.292 C 40.092 30.631,37.809 29.745,36.417 29.590 C 35.867 29.529,35.229 29.454,35.000 29.424 C 34.771 29.394,33.983 29.464,33.250 29.580 M32.083 54.836 C 24.081 56.946,21.339 66.914,27.139 72.814 C 31.813 77.569,39.968 76.838,43.657 71.333 C 49.177 63.094,41.620 52.322,32.083 54.836 " stroke="none" fill="#54c4f3" fill-rule="evenodd"></path><path id="path2" d="M83.319 4.230 C 83.281 4.264,82.800 4.342,82.250 4.403 C 81.700 4.463,81.137 4.529,81.000 4.550 C 80.555 4.616,78.261 5.799,77.875 6.161 C 77.669 6.355,77.500 6.464,77.500 6.405 C 77.500 6.006,75.081 8.931,74.596 9.917 C 74.082 10.962,73.385 13.179,73.364 13.833 C 73.360 13.971,73.322 14.365,73.280 14.708 C 73.238 15.052,73.255 15.333,73.319 15.333 C 73.383 15.333,73.419 15.575,73.399 15.871 C 73.378 16.166,73.423 16.522,73.497 16.662 C 73.572 16.802,73.677 17.194,73.731 17.532 C 73.851 18.289,74.308 19.492,74.609 19.846 C 74.732 19.991,74.833 20.171,74.833 20.246 C 74.833 20.889,78.417 24.277,79.222 24.395 C 79.331 24.411,79.730 24.586,80.110 24.784 C 80.490 24.982,80.835 25.110,80.877 25.067 C 80.919 25.025,81.170 25.075,81.435 25.178 C 82.610 25.635,86.196 25.516,87.206 24.985 C 87.365 24.902,87.609 24.833,87.748 24.833 C 87.886 24.833,88.000 24.758,88.000 24.667 C 88.000 24.575,88.056 24.513,88.125 24.529 C 88.430 24.600,90.022 23.644,91.225 22.667 C 91.649 22.323,93.500 19.893,93.500 19.681 C 93.500 19.587,93.686 19.089,93.914 18.574 C 94.682 16.837,94.834 12.818,94.166 11.917 C 94.098 11.825,94.064 11.619,94.090 11.458 C 94.116 11.298,94.077 11.167,94.003 11.167 C 93.930 11.167,93.823 10.982,93.766 10.756 C 93.396 9.282,90.720 6.232,89.287 5.653 C 88.992 5.533,88.712 5.394,88.667 5.343 C 88.583 5.250,87.561 4.840,87.250 4.775 C 87.158 4.756,87.008 4.694,86.917 4.636 C 86.468 4.356,83.545 4.025,83.319 4.230 M303.037 9.679 C 302.828 9.760,302.360 9.846,301.996 9.871 C 301.632 9.896,301.334 9.965,301.334 10.024 C 301.333 10.127,300.770 10.318,300.091 10.447 C 299.911 10.481,299.724 10.571,299.674 10.648 C 299.624 10.725,299.396 10.847,299.167 10.918 C 298.331 11.177,294.612 14.167,295.126 14.167 C 295.175 14.167,295.017 14.351,294.774 14.575 C 294.532 14.800,294.333 15.094,294.333 15.228 C 294.333 15.362,294.272 15.497,294.197 15.528 C 294.003 15.607,292.717 18.301,292.579 18.917 C 292.558 19.008,292.413 19.458,292.256 19.917 C 291.963 20.770,291.495 23.654,291.544 24.304 C 291.571 24.665,291.587 24.667,295.452 24.667 C 299.775 24.667,299.371 24.792,299.365 23.459 C 299.363 23.116,299.431 22.792,299.517 22.740 C 299.602 22.687,299.631 22.577,299.580 22.494 C 299.435 22.260,299.993 20.312,300.347 19.814 C 300.523 19.567,300.667 19.289,300.667 19.197 C 300.667 18.687,303.005 17.099,303.972 16.951 C 304.166 16.922,304.361 16.861,304.405 16.817 C 304.598 16.624,306.820 16.818,307.308 17.070 C 307.597 17.220,307.833 17.304,307.833 17.257 C 307.833 17.210,308.133 17.328,308.500 17.520 C 308.867 17.711,309.167 17.934,309.167 18.017 C 309.167 18.099,309.279 18.167,309.417 18.167 C 309.554 18.167,309.667 18.245,309.667 18.341 C 309.667 18.436,309.854 18.717,310.083 18.964 C 310.313 19.211,310.500 19.508,310.500 19.623 C 310.500 19.739,310.575 19.833,310.667 19.833 C 310.758 19.833,310.824 19.890,310.814 19.958 C 310.803 20.027,310.808 20.121,310.826 20.167 C 310.906 20.370,311.034 20.951,311.085 21.333 C 311.115 21.563,311.153 21.750,311.170 21.750 C 311.187 21.750,311.212 22.144,311.225 22.625 C 311.239 23.106,311.189 23.500,311.115 23.500 C 311.041 23.500,311.022 23.567,311.073 23.650 C 311.779 24.793,308.653 27.707,306.489 27.923 C 306.011 27.970,305.555 28.049,305.476 28.098 C 305.397 28.147,304.731 28.186,303.996 28.184 L 302.659 28.181 302.705 31.299 L 302.750 34.417 304.583 34.434 C 306.602 34.453,308.433 34.811,309.162 35.330 C 309.415 35.510,309.669 35.609,309.727 35.551 C 309.786 35.492,309.833 35.527,309.833 35.628 C 309.833 35.728,309.965 35.853,310.125 35.904 C 310.363 35.980,311.386 37.364,311.428 37.667 C 311.435 37.712,311.521 38.050,311.620 38.417 C 311.925 39.546,312.014 41.768,311.787 42.583 C 311.710 42.858,311.611 43.263,311.566 43.484 C 311.521 43.704,311.207 44.304,310.868 44.817 C 310.330 45.632,309.966 46.040,309.238 46.643 C 308.900 46.923,307.417 47.540,306.917 47.608 C 305.916 47.745,304.411 47.771,304.167 47.655 C 304.029 47.590,303.488 47.412,302.963 47.261 C 302.439 47.110,301.895 46.871,301.755 46.731 C 301.615 46.591,301.500 46.519,301.500 46.570 C 301.500 46.622,301.315 46.504,301.089 46.307 C 300.863 46.111,300.714 45.891,300.758 45.820 C 300.802 45.749,300.702 45.647,300.535 45.594 C 300.155 45.474,298.924 43.111,298.749 42.167 C 298.707 41.938,298.622 41.525,298.561 41.250 C 298.439 40.701,298.375 40.162,298.350 39.455 L 298.333 38.994 294.458 39.039 L 290.583 39.083 290.597 39.458 C 290.604 39.665,290.548 39.833,290.472 39.833 C 290.396 39.833,290.333 39.950,290.333 40.093 C 290.333 40.236,290.394 40.315,290.468 40.269 C 290.543 40.224,290.607 40.500,290.612 40.885 C 290.623 41.793,290.783 43.337,290.904 43.708 C 290.957 43.869,291.049 44.131,291.109 44.292 C 291.169 44.452,291.227 44.658,291.239 44.750 C 291.314 45.350,291.601 46.199,291.971 46.917 C 292.207 47.375,292.405 47.788,292.410 47.833 C 292.510 48.783,296.278 52.894,296.875 52.706 C 296.944 52.684,297.000 52.733,297.000 52.814 C 297.000 52.895,297.402 53.158,297.893 53.398 C 298.833 53.858,301.500 54.859,301.500 54.752 C 301.500 54.718,301.744 54.765,302.042 54.856 C 302.921 55.125,307.638 55.162,308.365 54.905 C 308.707 54.785,309.121 54.695,309.285 54.707 C 309.704 54.735,311.891 53.989,312.039 53.767 C 312.106 53.666,312.163 53.641,312.164 53.712 C 312.173 54.157,315.777 51.697,316.750 50.582 C 317.208 50.057,317.696 49.504,317.833 49.353 C 317.971 49.202,318.178 48.892,318.293 48.664 C 318.408 48.436,318.651 48.006,318.831 47.708 C 319.012 47.410,319.120 47.167,319.071 47.167 C 319.021 47.167,319.092 46.960,319.228 46.708 C 319.461 46.275,319.622 45.852,319.626 45.667 C 319.627 45.621,319.745 45.302,319.889 44.958 C 320.032 44.615,320.123 44.333,320.090 44.333 C 320.057 44.333,320.122 43.977,320.235 43.542 C 320.437 42.759,320.477 39.233,320.290 38.583 C 320.237 38.400,320.109 37.875,320.004 37.417 C 319.837 36.684,319.235 35.234,319.000 35.000 C 318.954 34.954,318.771 34.654,318.592 34.333 C 318.300 33.808,317.746 33.218,316.633 32.250 C 316.161 31.840,314.511 31.009,314.157 31.004 C 313.576 30.995,313.237 30.560,313.718 30.440 C 314.539 30.234,316.137 29.168,316.690 28.459 C 316.993 28.069,317.318 27.695,317.412 27.628 C 317.506 27.560,317.522 27.504,317.447 27.503 C 317.372 27.501,317.451 27.294,317.623 27.042 C 318.113 26.322,318.457 25.403,318.794 23.917 C 318.920 23.361,318.910 20.638,318.779 19.750 C 318.596 18.518,318.603 18.546,318.223 17.542 C 318.162 17.381,318.103 17.212,318.091 17.167 C 318.036 16.945,317.421 15.740,317.325 15.667 C 317.265 15.621,317.021 15.283,316.783 14.917 C 316.114 13.888,315.188 12.962,314.000 12.131 C 312.892 11.357,311.500 10.588,311.500 10.750 C 311.500 10.800,311.331 10.736,311.125 10.607 C 310.742 10.368,309.850 10.090,309.625 10.139 C 309.556 10.154,309.500 10.096,309.500 10.010 C 309.500 9.924,309.369 9.859,309.208 9.865 C 309.048 9.872,308.692 9.821,308.417 9.752 C 307.674 9.567,303.476 9.510,303.037 9.679 M335.250 9.821 C 334.700 9.965,334.151 10.147,334.031 10.225 C 333.910 10.303,333.768 10.324,333.716 10.272 C 333.664 10.219,333.425 10.311,333.185 10.475 C 332.946 10.639,332.315 10.982,331.783 11.236 C 330.757 11.728,327.833 14.347,327.833 14.774 C 327.833 14.904,327.735 15.048,327.615 15.094 C 327.495 15.140,327.179 15.550,326.913 16.006 C 326.647 16.461,326.371 16.833,326.298 16.833 C 326.226 16.833,326.167 16.937,326.167 17.063 C 326.167 17.190,325.906 17.808,325.586 18.438 C 325.267 19.068,325.005 19.715,325.003 19.875 C 325.001 20.035,324.912 20.167,324.806 20.167 C 324.699 20.167,324.658 20.214,324.716 20.271 C 324.773 20.329,324.714 20.582,324.583 20.833 C 324.453 21.085,324.394 21.338,324.451 21.396 C 324.509 21.453,324.481 21.500,324.389 21.500 C 324.297 21.500,324.218 21.594,324.214 21.708 C 324.203 21.983,324.077 22.541,323.763 23.705 C 323.622 24.231,323.464 24.906,323.414 25.205 C 323.363 25.505,323.290 25.863,323.251 26.000 C 323.212 26.137,323.140 26.700,323.092 27.250 C 323.043 27.800,322.955 28.550,322.896 28.917 C 322.730 29.943,322.702 35.109,322.855 36.417 C 323.014 37.774,323.335 40.101,323.430 40.583 C 323.633 41.608,323.819 42.356,324.093 43.250 C 324.262 43.800,324.407 44.288,324.415 44.333 C 324.481 44.684,324.909 45.791,325.045 45.962 C 325.138 46.079,325.166 46.223,325.107 46.282 C 325.048 46.341,325.107 46.508,325.238 46.653 C 325.369 46.798,325.491 46.992,325.509 47.083 C 325.581 47.443,325.734 47.769,326.038 48.208 C 326.213 48.460,326.310 48.667,326.255 48.667 C 326.199 48.667,326.232 48.760,326.328 48.875 C 326.424 48.990,326.801 49.467,327.165 49.936 C 328.083 51.120,329.664 52.667,329.956 52.667 C 330.031 52.667,330.221 52.817,330.378 53.000 C 330.535 53.183,330.771 53.333,330.903 53.333 C 331.035 53.333,331.244 53.435,331.368 53.559 C 331.649 53.839,334.654 54.901,334.788 54.767 C 334.842 54.714,334.987 54.753,335.109 54.855 C 335.241 54.964,336.216 55.059,337.481 55.086 C 339.358 55.125,340.047 55.070,341.583 54.759 C 342.045 54.665,343.795 54.044,344.045 53.885 C 344.158 53.814,344.287 53.752,344.333 53.749 C 344.552 53.733,347.000 51.970,347.000 51.828 C 347.000 51.739,347.071 51.667,347.158 51.667 C 347.383 51.667,348.167 50.914,348.167 50.698 C 348.167 50.598,348.269 50.457,348.394 50.383 C 348.683 50.214,350.163 47.963,350.564 47.084 C 351.150 45.796,351.676 44.265,351.600 44.066 C 351.558 43.956,351.574 43.815,351.636 43.752 C 351.699 43.690,351.759 43.570,351.771 43.486 C 351.782 43.402,351.809 43.315,351.830 43.292 C 352.149 42.945,352.359 37.698,352.095 36.667 C 352.036 36.438,351.952 35.987,351.907 35.667 C 351.707 34.241,351.258 32.684,350.918 32.234 C 350.785 32.060,350.675 31.785,350.672 31.625 C 350.669 31.465,350.592 31.333,350.500 31.333 C 350.408 31.333,350.333 31.183,350.333 31.000 C 350.333 30.817,350.263 30.667,350.178 30.667 C 350.092 30.667,349.975 30.517,349.917 30.334 C 349.859 30.152,349.723 29.905,349.614 29.788 C 348.296 28.356,347.667 27.698,347.667 27.752 C 347.667 27.789,347.493 27.653,347.281 27.451 C 346.900 27.088,345.923 26.504,345.724 26.520 C 345.667 26.525,345.575 26.466,345.519 26.389 C 345.376 26.195,343.963 25.518,343.572 25.457 C 343.395 25.430,343.170 25.357,343.072 25.296 C 342.514 24.947,337.599 24.705,337.406 25.017 C 337.353 25.102,337.237 25.127,337.148 25.072 C 337.058 25.016,336.792 25.098,336.555 25.253 C 336.319 25.408,336.180 25.446,336.247 25.338 C 336.425 25.050,334.150 26.174,333.667 26.614 C 333.529 26.739,333.125 27.064,332.769 27.337 C 332.412 27.610,332.165 27.833,332.219 27.833 C 332.273 27.833,332.059 28.084,331.743 28.390 C 331.428 28.697,331.219 28.997,331.279 29.057 C 331.340 29.117,331.301 29.167,331.194 29.167 C 331.088 29.167,331.000 29.279,331.000 29.417 C 331.000 29.554,330.930 29.667,330.845 29.667 C 330.759 29.667,330.722 29.348,330.762 28.958 C 330.939 27.226,331.015 26.550,331.085 26.083 C 331.126 25.808,331.196 25.300,331.240 24.953 C 331.284 24.606,331.368 24.245,331.426 24.152 C 331.484 24.058,331.553 23.816,331.578 23.615 C 331.637 23.157,332.273 21.396,332.593 20.808 C 332.725 20.564,332.833 20.245,332.833 20.098 C 332.833 19.950,332.983 19.702,333.167 19.545 C 333.350 19.388,333.500 19.202,333.500 19.132 C 333.500 18.987,333.834 18.564,334.631 17.701 C 335.142 17.147,336.497 16.374,336.503 16.633 C 336.504 16.697,336.567 16.652,336.643 16.532 C 337.134 15.758,340.408 16.317,341.573 17.374 C 341.751 17.535,341.957 17.667,342.031 17.667 C 342.106 17.667,342.167 17.738,342.167 17.825 C 342.167 17.912,342.354 18.185,342.583 18.432 C 342.813 18.680,343.000 18.984,343.000 19.108 C 343.000 19.232,343.059 19.333,343.132 19.333 C 343.269 19.333,343.743 20.807,343.687 21.059 C 343.567 21.598,344.034 21.667,347.831 21.667 L 351.621 21.667 351.575 21.292 C 351.550 21.085,351.477 20.654,351.413 20.333 C 351.348 20.012,351.273 19.578,351.245 19.367 C 351.217 19.156,351.110 18.883,351.008 18.760 C 350.905 18.636,350.836 18.471,350.854 18.393 C 350.872 18.314,350.800 18.039,350.694 17.781 C 350.587 17.523,350.500 17.213,350.500 17.093 C 350.500 16.973,350.387 16.781,350.250 16.667 C 350.113 16.553,350.000 16.374,350.000 16.270 C 350.000 15.543,346.689 11.667,346.068 11.667 C 345.939 11.667,345.833 11.604,345.833 11.528 C 345.833 11.356,343.820 10.333,343.482 10.333 C 343.345 10.333,343.162 10.265,343.075 10.180 C 342.937 10.048,342.390 9.906,341.497 9.772 C 341.358 9.751,341.170 9.689,341.080 9.633 C 340.727 9.415,336.248 9.559,335.250 9.821 M367.290 9.599 C 367.211 9.678,366.369 9.817,365.667 9.866 C 365.529 9.876,365.379 9.934,365.333 9.996 C 365.287 10.058,364.837 10.241,364.333 10.402 C 363.829 10.564,363.029 10.952,362.555 11.265 C 362.081 11.577,361.650 11.833,361.596 11.833 C 361.391 11.833,358.833 14.553,358.833 14.771 C 358.833 14.897,358.776 15.000,358.706 15.000 C 358.576 15.000,358.497 15.127,357.917 16.264 C 357.733 16.623,357.541 16.954,357.490 17.000 C 357.384 17.094,356.890 18.359,356.287 20.083 C 355.781 21.528,355.536 22.623,355.225 24.833 C 355.193 25.063,355.125 25.550,355.073 25.917 C 355.022 26.283,354.937 26.958,354.884 27.417 C 354.755 28.538,354.758 35.125,354.888 36.583 C 354.996 37.790,355.038 38.118,355.345 40.083 C 355.445 40.725,355.527 41.362,355.527 41.500 C 355.528 41.637,355.570 41.862,355.622 42.000 C 355.674 42.137,355.744 42.392,355.778 42.566 C 355.811 42.741,356.004 43.416,356.205 44.066 C 356.406 44.717,356.576 45.288,356.582 45.333 C 356.628 45.688,357.260 47.167,357.366 47.167 C 357.440 47.167,357.500 47.307,357.500 47.480 C 357.500 47.652,357.612 47.885,357.748 47.998 C 357.885 48.112,357.955 48.271,357.905 48.352 C 357.855 48.433,357.894 48.500,357.992 48.500 C 358.091 48.500,358.335 48.837,358.535 49.250 C 358.736 49.663,358.960 50.000,359.033 50.000 C 359.107 50.000,359.167 50.079,359.167 50.176 C 359.167 50.328,360.247 51.590,360.750 52.027 C 361.186 52.405,362.492 53.333,362.589 53.333 C 362.649 53.333,362.885 53.481,363.114 53.661 C 364.296 54.591,370.488 55.585,371.576 55.021 C 371.738 54.936,372.549 54.808,373.000 54.795 C 373.137 54.791,373.327 54.728,373.422 54.654 C 373.516 54.580,373.782 54.486,374.011 54.444 C 375.690 54.140,380.160 50.723,380.166 49.740 C 380.166 49.642,380.301 49.417,380.465 49.240 C 380.628 49.062,380.862 48.673,380.985 48.375 C 381.107 48.077,381.265 47.833,381.335 47.833 C 381.452 47.833,381.732 47.004,381.666 46.852 C 381.651 46.816,381.718 46.738,381.815 46.678 C 381.912 46.618,382.014 46.422,382.042 46.243 C 382.070 46.063,382.164 45.804,382.250 45.667 C 382.337 45.529,382.424 45.342,382.444 45.250 C 382.464 45.158,382.713 44.268,382.997 43.271 C 383.282 42.274,383.478 41.423,383.434 41.379 C 383.391 41.335,383.427 41.109,383.515 40.877 C 383.603 40.645,383.719 40.072,383.772 39.603 C 383.825 39.134,383.899 38.563,383.936 38.333 C 384.444 35.178,384.177 25.027,383.546 23.500 C 383.489 23.363,383.428 23.007,383.410 22.710 C 383.392 22.414,383.274 22.046,383.147 21.893 C 383.020 21.740,382.940 21.571,382.969 21.516 C 382.998 21.461,382.966 21.154,382.899 20.833 C 382.765 20.197,382.765 20.197,382.626 19.833 C 382.573 19.696,382.396 19.190,382.232 18.708 C 382.068 18.227,381.874 17.833,381.800 17.833 C 381.727 17.833,381.666 17.702,381.666 17.542 C 381.663 16.776,380.252 14.636,378.691 13.029 C 378.055 12.375,376.667 11.283,376.667 11.438 C 376.667 11.494,376.404 11.339,376.083 11.095 C 375.762 10.850,375.500 10.696,375.500 10.753 C 375.500 10.810,375.294 10.712,375.042 10.535 C 374.790 10.359,374.358 10.165,374.083 10.104 C 372.869 9.837,372.566 9.780,372.292 9.771 C 372.131 9.766,372.000 9.718,372.000 9.663 C 372.000 9.540,367.412 9.477,367.290 9.599 M371.185 17.018 C 371.581 17.237,371.680 17.273,372.002 17.313 C 372.543 17.379,374.400 19.749,374.321 20.272 C 374.312 20.331,374.368 20.425,374.444 20.481 C 374.806 20.746,375.092 21.562,375.587 23.743 C 375.721 24.336,375.881 25.407,375.923 26.000 C 375.946 26.321,376.014 27.071,376.074 27.667 C 376.238 29.307,376.279 33.819,376.144 35.373 C 376.078 36.130,375.982 37.412,375.931 38.221 C 375.880 39.030,375.798 39.756,375.749 39.835 C 375.700 39.915,375.615 40.303,375.561 40.698 C 375.507 41.093,375.396 41.543,375.315 41.697 C 375.233 41.852,375.167 42.138,375.167 42.333 C 375.167 42.529,375.077 42.852,374.966 43.053 C 374.856 43.253,374.749 43.522,374.727 43.650 C 374.706 43.778,374.590 43.946,374.469 44.022 C 374.349 44.099,374.309 44.163,374.380 44.164 C 374.581 44.168,373.712 45.641,373.266 46.052 C 372.256 46.982,371.859 47.303,371.796 47.240 C 371.758 47.202,371.453 47.312,371.118 47.482 C 370.546 47.774,369.006 47.837,368.167 47.604 C 367.423 47.397,367.167 47.280,367.167 47.147 C 367.167 47.066,367.057 47.000,366.922 47.000 C 366.594 47.000,364.804 45.171,365.126 45.164 C 365.194 45.163,365.149 45.097,365.025 45.019 C 364.771 44.858,364.002 43.067,364.001 42.635 C 364.000 42.480,363.920 42.303,363.822 42.243 C 363.724 42.182,363.686 42.023,363.738 41.888 C 363.790 41.753,363.750 41.489,363.649 41.301 C 363.549 41.113,363.435 40.650,363.396 40.272 C 363.356 39.893,363.288 39.358,363.245 39.083 C 362.878 36.788,362.875 26.408,363.241 25.490 C 363.298 25.348,363.366 24.880,363.393 24.450 C 363.419 24.021,363.492 23.619,363.554 23.557 C 363.616 23.495,363.667 23.199,363.667 22.899 C 363.667 22.599,363.742 22.307,363.833 22.250 C 363.925 22.193,364.000 22.044,364.000 21.918 C 364.000 21.792,364.087 21.477,364.194 21.219 C 364.300 20.961,364.371 20.682,364.351 20.599 C 364.332 20.515,364.377 20.403,364.451 20.349 C 364.526 20.294,364.734 19.969,364.914 19.625 C 365.095 19.281,365.305 19.000,365.381 19.000 C 365.457 19.000,365.480 18.935,365.431 18.856 C 365.353 18.730,366.735 17.439,366.988 17.403 C 367.082 17.389,367.770 17.125,368.416 16.856 C 368.899 16.654,370.721 16.760,371.185 17.018 M58.167 29.673 C 56.504 29.963,56.255 30.024,56.048 30.196 C 55.930 30.294,55.833 30.334,55.833 30.285 C 55.833 30.126,53.913 31.120,53.682 31.398 C 53.560 31.546,53.367 31.667,53.253 31.667 C 52.944 31.667,51.381 33.287,50.640 34.375 C 50.281 34.902,50.039 35.333,50.103 35.333 C 50.166 35.333,50.093 35.472,49.940 35.641 C 49.115 36.553,48.574 41.776,49.216 42.625 C 49.303 42.740,49.331 42.833,49.278 42.833 C 49.001 42.833,50.319 45.742,50.858 46.322 C 51.028 46.504,51.167 46.690,51.167 46.736 C 51.167 46.953,52.891 48.536,53.768 49.124 C 54.731 49.769,56.167 50.431,56.167 50.228 C 56.167 50.172,56.260 50.201,56.375 50.294 C 56.638 50.506,57.552 50.718,58.417 50.768 C 58.783 50.789,59.121 50.821,59.167 50.839 C 59.396 50.930,61.255 50.792,61.607 50.658 C 61.830 50.573,62.065 50.515,62.131 50.529 C 62.196 50.543,62.461 50.467,62.719 50.360 C 62.977 50.254,63.292 50.167,63.418 50.167 C 63.544 50.167,63.694 50.090,63.752 49.997 C 63.809 49.904,63.926 49.871,64.012 49.924 C 64.097 49.977,64.167 49.942,64.167 49.846 C 64.167 49.751,64.361 49.624,64.598 49.565 C 64.974 49.471,65.545 49.046,66.917 47.840 C 67.612 47.229,69.000 45.369,69.000 45.048 C 69.000 44.936,69.190 44.505,69.422 44.089 C 69.654 43.673,69.811 43.333,69.772 43.333 C 69.732 43.333,69.798 43.005,69.919 42.603 C 71.264 38.134,67.552 31.169,63.333 30.244 C 63.288 30.234,62.830 30.098,62.318 29.942 C 61.238 29.613,59.250 29.485,58.167 29.673 M81.833 29.792 C 81.329 29.919,80.729 30.065,80.500 30.116 C 80.271 30.168,79.951 30.326,79.789 30.466 C 79.627 30.607,79.347 30.734,79.165 30.747 C 78.984 30.760,78.648 30.935,78.418 31.135 C 78.188 31.334,77.998 31.442,77.995 31.374 C 77.992 31.306,77.879 31.396,77.745 31.574 C 77.610 31.751,77.500 31.848,77.500 31.788 C 77.500 31.601,76.088 33.045,75.442 33.893 C 74.853 34.667,74.167 35.967,74.167 36.310 C 74.167 36.399,74.099 36.497,74.015 36.528 C 73.932 36.558,73.821 36.846,73.768 37.167 C 73.716 37.487,73.622 37.938,73.560 38.167 C 73.498 38.396,73.441 38.865,73.432 39.208 C 73.424 39.552,73.370 39.833,73.314 39.833 C 73.257 39.833,73.246 40.077,73.289 40.375 C 73.332 40.673,73.363 41.061,73.359 41.236 C 73.333 42.171,74.662 45.833,75.027 45.833 C 75.104 45.833,75.167 45.938,75.167 46.066 C 75.167 46.638,78.737 49.796,79.542 49.937 C 79.610 49.949,79.704 49.977,79.750 50.000 C 79.796 50.023,79.902 50.051,79.986 50.063 C 80.070 50.074,80.195 50.140,80.264 50.208 C 80.333 50.277,80.551 50.333,80.750 50.333 C 80.949 50.333,81.163 50.386,81.227 50.449 C 81.675 50.897,85.069 50.985,86.340 50.581 C 86.505 50.529,86.800 50.455,86.996 50.417 C 88.183 50.189,90.249 48.936,91.417 47.736 C 92.552 46.570,93.653 45.081,93.735 44.601 C 93.752 44.500,93.859 44.248,93.972 44.042 C 94.086 43.835,94.146 43.667,94.106 43.667 C 94.065 43.667,94.144 43.310,94.280 42.875 C 94.591 41.878,94.711 39.219,94.478 38.478 C 94.382 38.169,94.241 37.654,94.165 37.333 C 94.090 37.012,93.988 36.576,93.938 36.364 C 93.889 36.152,93.619 35.627,93.340 35.198 C 93.060 34.768,92.717 34.170,92.577 33.868 C 92.437 33.567,92.251 33.365,92.162 33.420 C 92.073 33.475,92.000 33.459,92.000 33.385 C 91.999 33.048,90.079 31.333,89.702 31.333 C 89.611 31.333,89.492 31.221,89.440 31.083 C 89.387 30.946,89.191 30.833,89.005 30.833 C 88.819 30.833,88.667 30.758,88.667 30.667 C 88.667 30.575,88.610 30.512,88.542 30.526 C 88.473 30.540,88.144 30.430,87.811 30.281 C 87.478 30.133,86.959 29.968,86.658 29.915 C 86.357 29.862,86.030 29.768,85.931 29.706 C 85.598 29.499,82.761 29.559,81.833 29.792 M107.250 29.624 C 106.975 29.664,106.660 29.771,106.549 29.862 C 106.438 29.954,106.270 29.980,106.174 29.921 C 106.078 29.862,105.906 29.872,105.792 29.944 C 105.677 30.015,105.433 30.097,105.250 30.125 C 105.067 30.153,104.892 30.250,104.861 30.339 C 104.830 30.429,104.736 30.460,104.652 30.408 C 104.569 30.356,104.500 30.391,104.500 30.485 C 104.500 30.579,104.398 30.617,104.273 30.569 C 104.149 30.521,103.830 30.663,103.565 30.884 C 103.300 31.105,102.858 31.402,102.583 31.544 C 102.156 31.764,101.527 32.335,100.416 33.514 C 100.279 33.659,100.167 33.865,100.167 33.972 C 100.167 34.079,100.092 34.167,100.000 34.167 C 99.908 34.167,99.833 34.279,99.833 34.417 C 99.833 34.554,99.746 34.667,99.639 34.667 C 99.532 34.667,99.495 34.717,99.556 34.778 C 99.617 34.839,99.561 35.008,99.430 35.153 C 98.190 36.531,97.777 40.537,98.568 43.522 C 98.683 43.958,99.339 45.191,99.856 45.947 C 100.119 46.330,100.333 46.706,100.333 46.782 C 100.333 46.858,100.483 47.013,100.667 47.128 C 100.850 47.242,101.000 47.452,101.000 47.595 C 101.000 47.737,101.064 47.814,101.142 47.766 C 101.219 47.717,101.439 47.844,101.630 48.047 C 102.132 48.582,102.462 48.833,102.660 48.833 C 102.755 48.833,102.833 48.895,102.833 48.969 C 102.833 49.044,103.133 49.274,103.500 49.480 C 103.867 49.686,104.167 49.807,104.167 49.749 C 104.167 49.691,104.285 49.761,104.429 49.905 C 104.573 50.049,104.873 50.167,105.095 50.167 C 105.318 50.167,105.500 50.241,105.500 50.331 C 105.500 50.422,105.669 50.487,105.875 50.475 C 106.081 50.464,106.452 50.536,106.699 50.636 C 106.946 50.736,107.302 50.788,107.490 50.752 C 107.679 50.716,107.833 50.740,107.833 50.807 C 107.833 50.874,107.983 50.929,108.167 50.929 C 108.350 50.929,108.500 50.885,108.500 50.831 C 108.500 50.778,108.856 50.748,109.292 50.764 C 110.019 50.792,111.396 50.591,112.000 50.370 C 112.138 50.320,112.287 50.271,112.333 50.261 C 112.926 50.134,114.697 49.080,115.293 48.500 C 115.528 48.271,115.657 48.196,115.579 48.333 C 115.500 48.471,115.732 48.273,116.093 47.893 C 116.999 46.941,117.333 46.523,117.333 46.340 C 117.333 46.254,117.435 46.123,117.559 46.050 C 118.318 45.601,119.314 42.358,119.331 40.279 C 119.346 38.565,119.281 38.193,118.675 36.500 C 118.560 36.179,118.428 35.748,118.380 35.542 C 118.333 35.335,118.229 35.167,118.149 35.167 C 118.070 35.167,117.901 34.919,117.774 34.616 C 117.516 33.999,115.501 31.833,115.184 31.833 C 115.072 31.833,115.027 31.758,115.083 31.667 C 115.140 31.575,115.100 31.500,114.994 31.500 C 114.888 31.500,114.594 31.352,114.340 31.172 C 114.087 30.991,113.831 30.891,113.773 30.949 C 113.714 31.008,113.667 30.974,113.667 30.874 C 113.667 30.774,113.385 30.603,113.042 30.494 C 112.698 30.385,112.246 30.189,112.037 30.058 C 111.828 29.927,111.591 29.861,111.509 29.911 C 111.428 29.961,111.149 29.919,110.889 29.816 C 110.395 29.622,108.110 29.501,107.250 29.624 M339.801 31.717 C 340.574 31.920,342.333 33.241,342.333 33.619 C 342.333 33.702,342.491 33.940,342.683 34.146 C 342.876 34.353,342.988 34.567,342.933 34.622 C 342.878 34.678,342.957 34.860,343.109 35.028 C 343.261 35.196,343.334 35.333,343.272 35.333 C 343.210 35.333,343.276 35.511,343.418 35.729 C 343.561 35.947,343.711 36.266,343.751 36.438 C 343.791 36.609,343.895 37.042,343.983 37.398 C 344.267 38.557,344.097 41.968,343.707 42.917 C 343.025 44.575,341.832 46.443,341.602 46.213 C 341.546 46.157,341.500 46.241,341.500 46.399 C 341.500 46.557,341.425 46.640,341.333 46.583 C 341.242 46.527,341.167 46.545,341.167 46.624 C 341.167 46.795,339.723 47.533,339.250 47.603 C 337.083 47.924,335.513 47.506,334.083 46.229 C 333.717 45.901,333.529 45.692,333.667 45.765 C 333.892 45.883,333.676 45.608,332.786 44.645 C 332.623 44.468,332.445 44.100,332.391 43.828 C 332.336 43.556,332.240 43.333,332.177 43.333 C 332.063 43.333,331.791 42.328,331.570 41.083 C 331.327 39.710,331.491 37.418,331.900 36.483 C 331.964 36.336,331.997 36.149,331.973 36.067 C 331.949 35.984,332.023 35.748,332.137 35.542 C 332.251 35.335,332.286 35.166,332.214 35.164 C 332.142 35.163,332.167 35.106,332.268 35.039 C 332.370 34.972,332.572 34.692,332.717 34.417 C 333.048 33.788,334.055 32.667,334.289 32.667 C 334.385 32.667,334.509 32.549,334.564 32.406 C 334.619 32.263,334.732 32.187,334.815 32.238 C 334.897 32.290,335.010 32.215,335.065 32.072 C 335.119 31.929,335.222 31.848,335.293 31.891 C 335.363 31.935,335.607 31.869,335.835 31.744 C 336.255 31.516,338.963 31.497,339.801 31.717 " stroke="none" fill="#d41c44" fill-rule="evenodd"></path><path id="path3" d="" stroke="none" fill="#dc1c44" fill-rule="evenodd"></path><path id="path4" d="M86.929 4.686 C 86.986 4.779,87.073 4.816,87.121 4.768 C 87.169 4.719,87.421 4.789,87.680 4.923 C 87.938 5.057,88.248 5.164,88.367 5.160 C 88.609 5.153,87.582 4.673,87.121 4.578 C 86.951 4.544,86.869 4.590,86.929 4.686 M88.668 5.288 C 88.669 5.359,88.969 5.542,89.335 5.696 C 90.193 6.056,90.192 5.938,89.333 5.500 C 88.967 5.313,88.667 5.218,88.668 5.288 M78.208 5.703 C 78.002 5.803,77.833 5.950,77.833 6.029 C 77.833 6.109,78.021 6.051,78.250 5.901 C 78.861 5.501,78.840 5.399,78.208 5.703 M90.492 6.467 C 91.044 6.850,92.101 7.941,92.686 8.733 C 92.951 9.091,93.167 9.323,93.167 9.249 C 93.167 8.776,90.661 6.150,90.233 6.175 C 90.151 6.180,90.267 6.311,90.492 6.467 M76.401 7.212 C 75.234 8.454,75.066 8.786,76.154 7.700 C 76.732 7.122,77.173 6.618,77.134 6.578 C 77.095 6.539,76.765 6.824,76.401 7.212 M74.421 9.825 C 74.131 10.386,74.101 10.560,74.317 10.427 C 74.476 10.329,74.866 9.333,74.746 9.333 C 74.707 9.333,74.561 9.555,74.421 9.825 M304.958 9.454 C 305.256 9.491,305.744 9.491,306.042 9.454 C 306.340 9.417,306.096 9.387,305.500 9.387 C 304.904 9.387,304.660 9.417,304.958 9.454 M337.955 9.454 C 338.250 9.490,338.775 9.491,339.121 9.455 C 339.467 9.419,339.225 9.389,338.583 9.388 C 337.942 9.387,337.659 9.417,337.955 9.454 M368.875 9.455 C 369.219 9.491,369.781 9.491,370.125 9.455 C 370.469 9.419,370.188 9.389,369.500 9.389 C 368.813 9.389,368.531 9.419,368.875 9.455 M93.246 9.625 C 93.742 10.586,93.831 10.719,93.829 10.500 C 93.827 10.362,93.671 10.063,93.482 9.833 C 93.293 9.604,93.186 9.511,93.246 9.625 M302.333 9.667 L 301.917 9.800 302.365 9.817 C 302.612 9.826,302.860 9.758,302.917 9.667 C 303.034 9.477,302.925 9.477,302.333 9.667 M335.417 9.667 C 335.207 9.757,335.176 9.810,335.333 9.810 C 335.471 9.810,335.733 9.745,335.917 9.667 C 336.127 9.576,336.158 9.523,336.000 9.523 C 335.862 9.523,335.600 9.588,335.417 9.667 M366.500 9.566 C 366.500 9.727,366.970 9.788,367.182 9.654 C 367.353 9.546,367.292 9.504,366.958 9.503 C 366.706 9.501,366.500 9.529,366.500 9.566 M300.792 10.095 C 300.187 10.423,300.208 10.518,300.833 10.282 C 301.108 10.179,301.333 10.035,301.333 9.963 C 301.333 9.799,301.340 9.798,300.792 10.095 M364.583 10.119 C 364.400 10.163,364.181 10.264,364.098 10.344 C 364.014 10.423,364.239 10.408,364.598 10.310 C 365.565 10.046,365.553 9.886,364.583 10.119 M332.277 10.770 C 332.017 10.911,331.836 11.058,331.875 11.097 C 331.953 11.175,333.000 10.686,333.000 10.571 C 333.000 10.443,332.758 10.509,332.277 10.770 M73.777 11.363 C 73.627 11.746,73.538 12.094,73.580 12.136 C 73.655 12.210,73.829 11.822,74.072 11.042 C 74.271 10.405,74.066 10.628,73.777 11.363 M376.164 11.159 C 376.392 11.334,376.611 11.444,376.652 11.404 C 376.746 11.309,376.137 10.844,375.917 10.842 C 375.825 10.841,375.936 10.984,376.164 11.159 M377.000 11.561 C 377.000 11.606,377.225 11.804,377.500 12.000 C 377.775 12.196,378.000 12.319,378.000 12.273 C 378.000 12.227,377.775 12.029,377.500 11.833 C 377.225 11.638,377.000 11.515,377.000 11.561 M314.103 12.197 C 314.841 12.754,314.984 12.799,314.423 12.296 C 314.145 12.047,313.850 11.840,313.769 11.838 C 313.688 11.835,313.838 11.997,314.103 12.197 M296.290 12.682 C 295.630 13.248,295.011 14.000,295.205 14.000 C 295.233 14.000,295.697 13.550,296.236 13.000 C 297.382 11.832,297.399 11.732,296.290 12.682 M347.627 12.958 C 348.570 13.871,350.000 15.867,350.000 16.270 C 350.000 16.374,350.123 16.561,350.274 16.687 C 351.229 17.479,348.823 13.845,347.695 12.792 C 346.493 11.669,346.437 11.806,347.627 12.958 M360.391 12.772 C 359.947 13.197,359.768 13.404,359.994 13.231 C 360.648 12.731,361.427 12.002,361.308 12.001 C 361.248 12.000,360.835 12.348,360.391 12.772 M329.500 12.721 C 329.179 13.022,328.655 13.564,328.336 13.925 C 328.016 14.287,328.297 14.060,328.961 13.421 C 329.624 12.782,330.167 12.238,330.167 12.213 C 330.167 12.114,330.064 12.193,329.500 12.721 M73.429 12.762 C 73.367 13.006,73.349 13.238,73.389 13.277 C 73.428 13.317,73.510 13.149,73.571 12.905 C 73.633 12.661,73.651 12.429,73.611 12.389 C 73.572 12.350,73.490 12.518,73.429 12.762 M378.340 12.558 C 378.336 12.636,378.542 12.898,378.796 13.141 C 379.051 13.384,379.463 13.846,379.711 14.167 C 379.960 14.487,380.164 14.674,380.165 14.580 C 380.167 14.373,378.349 12.359,378.340 12.558 M315.617 13.417 C 315.808 13.692,316.136 14.067,316.347 14.250 L 316.730 14.583 316.383 14.083 C 316.192 13.808,315.864 13.433,315.653 13.250 L 315.270 12.917 315.617 13.417 M73.167 14.073 C 73.167 14.584,73.262 14.625,73.382 14.167 C 73.430 13.984,73.401 13.792,73.318 13.740 C 73.235 13.689,73.167 13.839,73.167 14.073 M358.896 14.391 C 358.182 15.341,357.836 16.007,358.223 15.688 C 358.375 15.562,358.500 15.356,358.500 15.230 C 358.500 15.103,358.575 15.000,358.667 15.000 C 358.758 15.000,358.833 14.911,358.833 14.802 C 358.833 14.694,358.996 14.432,359.195 14.220 C 359.394 14.008,359.525 13.804,359.487 13.767 C 359.448 13.729,359.182 14.010,358.896 14.391 M94.686 14.167 C 94.670 14.213,94.628 14.813,94.594 15.500 C 94.533 16.738,94.534 16.741,94.689 15.833 C 94.814 15.100,94.812 13.822,94.686 14.167 M316.826 14.987 C 316.921 15.163,317.095 15.407,317.214 15.529 C 317.426 15.747,318.065 16.978,318.077 17.194 C 318.088 17.388,318.333 17.564,318.333 17.378 C 318.333 17.201,317.604 15.754,317.156 15.042 C 316.869 14.585,316.586 14.538,316.826 14.987 M327.293 15.197 C 326.598 16.138,326.333 16.567,326.337 16.745 C 326.338 16.840,326.575 16.542,326.862 16.083 C 327.150 15.625,327.505 15.162,327.651 15.055 C 327.797 14.948,327.868 14.812,327.808 14.753 C 327.749 14.693,327.517 14.893,327.293 15.197 M73.167 15.657 C 73.167 15.835,73.223 16.015,73.292 16.058 C 73.360 16.100,73.417 15.954,73.417 15.734 C 73.417 15.514,73.360 15.333,73.292 15.333 C 73.223 15.333,73.167 15.479,73.167 15.657 M293.632 16.042 C 293.253 16.633,292.935 17.500,293.096 17.500 C 293.154 17.500,293.349 17.105,293.859 15.958 C 294.041 15.550,293.918 15.595,293.632 16.042 M357.603 16.411 C 357.303 16.869,357.272 17.000,357.463 17.000 C 357.535 17.000,357.679 16.775,357.782 16.500 C 358.012 15.893,357.959 15.866,357.603 16.411 M73.390 16.722 C 73.451 16.890,73.500 17.213,73.500 17.440 C 73.500 17.667,73.569 17.810,73.654 17.758 C 73.812 17.660,73.614 16.714,73.395 16.519 C 73.332 16.463,73.330 16.554,73.390 16.722 M335.833 16.805 C 335.187 17.114,334.500 17.666,334.500 17.877 C 334.500 17.952,334.669 17.854,334.875 17.659 C 335.081 17.464,335.531 17.159,335.875 16.982 C 336.219 16.805,336.500 16.624,336.500 16.580 C 336.500 16.482,336.538 16.469,335.833 16.805 M340.014 16.553 C 340.354 16.814,341.333 17.296,341.332 17.203 C 341.331 17.056,340.376 16.500,340.125 16.500 C 340.026 16.500,339.976 16.524,340.014 16.553 M325.513 18.195 C 324.788 19.763,324.649 20.167,324.837 20.167 C 324.927 20.167,325.001 20.035,325.003 19.875 C 325.005 19.715,325.268 19.066,325.589 18.433 C 325.910 17.801,326.135 17.247,326.091 17.202 C 326.047 17.158,325.787 17.604,325.513 18.195 M372.083 17.574 C 372.358 17.807,372.645 17.999,372.720 17.999 C 372.932 18.000,372.458 17.576,371.997 17.351 C 371.636 17.175,371.647 17.203,372.083 17.574 M292.646 18.125 C 292.336 18.920,292.003 20.074,292.009 20.333 C 292.014 20.567,292.434 19.550,292.560 19.000 C 292.591 18.862,292.673 18.600,292.741 18.417 C 292.952 17.851,292.993 17.667,292.907 17.667 C 292.862 17.667,292.745 17.873,292.646 18.125 M301.199 18.550 C 300.906 18.852,300.667 19.157,300.667 19.228 C 300.667 19.357,300.724 19.302,301.487 18.451 C 302.058 17.814,301.840 17.889,301.199 18.550 M342.337 18.209 C 342.335 18.278,342.557 18.690,342.830 19.125 C 343.118 19.584,343.328 19.794,343.330 19.625 C 343.332 19.465,343.258 19.333,343.167 19.333 C 343.075 19.333,342.998 19.240,342.996 19.125 C 342.992 18.901,342.343 17.999,342.337 18.209 M93.788 18.792 C 93.742 18.952,93.647 19.233,93.578 19.417 C 93.388 19.914,93.731 19.509,93.965 18.958 C 94.072 18.706,94.095 18.500,94.016 18.500 C 93.937 18.500,93.834 18.631,93.788 18.792 M318.678 19.115 C 318.672 19.316,318.742 19.527,318.833 19.583 C 319.030 19.705,319.030 19.542,318.833 19.083 C 318.695 18.762,318.690 18.763,318.678 19.115 M356.289 19.545 C 356.141 19.978,356.052 20.333,356.091 20.333 C 356.219 20.333,356.676 19.112,356.616 18.932 C 356.584 18.835,356.437 19.111,356.289 19.545 M373.773 19.250 C 374.158 19.908,374.167 19.918,374.167 19.713 C 374.167 19.616,374.012 19.360,373.823 19.143 L 373.480 18.750 373.773 19.250 M351.178 19.448 C 351.216 19.881,351.477 20.248,351.488 19.885 C 351.495 19.684,351.425 19.473,351.333 19.417 C 351.242 19.360,351.172 19.374,351.178 19.448 M332.913 19.846 C 332.752 20.352,332.914 20.404,333.136 19.917 C 333.241 19.688,333.258 19.500,333.174 19.500 C 333.091 19.500,332.973 19.656,332.913 19.846 M300.094 20.252 C 299.938 20.580,299.847 20.939,299.892 21.049 C 299.944 21.178,299.979 21.160,299.988 21.000 C 299.996 20.862,300.115 20.533,300.254 20.267 C 300.393 20.001,300.477 19.755,300.441 19.719 C 300.406 19.684,300.250 19.923,300.094 20.252 M318.793 20.250 C 318.836 20.479,318.901 20.667,318.936 20.667 C 318.971 20.667,319.000 20.479,319.000 20.250 C 319.000 20.021,318.935 19.833,318.856 19.833 C 318.777 19.833,318.749 20.021,318.793 20.250 M92.981 20.542 C 92.774 20.840,92.312 21.458,91.953 21.917 L 91.301 22.750 91.917 22.083 C 92.565 21.383,93.573 20.000,93.436 20.000 C 93.392 20.000,93.187 20.244,92.981 20.542 M382.912 20.875 C 383.030 21.265,383.129 21.646,383.132 21.722 C 383.143 21.943,383.333 22.077,383.333 21.864 C 383.333 21.490,382.929 20.167,382.815 20.167 C 382.751 20.167,382.795 20.485,382.912 20.875 M75.178 21.000 C 75.873 22.085,78.115 24.167,78.589 24.167 C 78.659 24.167,78.390 23.930,77.991 23.641 C 77.187 23.059,76.197 22.097,75.357 21.083 C 74.840 20.460,74.829 20.454,75.178 21.000 M374.826 21.453 C 374.907 21.708,375.020 22.132,375.078 22.395 C 375.136 22.658,375.220 22.835,375.266 22.790 C 375.380 22.676,374.991 21.181,374.820 21.075 C 374.743 21.027,374.746 21.197,374.826 21.453 M291.705 21.833 C 291.705 22.154,291.740 22.285,291.782 22.125 C 291.823 21.965,291.823 21.702,291.782 21.542 C 291.740 21.381,291.705 21.512,291.705 21.833 M299.488 22.208 C 299.481 22.323,299.442 22.600,299.401 22.823 C 299.359 23.047,299.370 23.185,299.425 23.131 C 299.561 22.995,299.709 22.000,299.593 22.000 C 299.542 22.000,299.494 22.094,299.488 22.208 M363.731 22.407 C 363.680 22.539,363.668 22.783,363.704 22.949 C 363.745 23.137,363.802 23.047,363.856 22.708 C 363.946 22.141,363.887 21.998,363.731 22.407 M91.000 22.770 C 91.000 22.857,90.794 23.055,90.542 23.210 C 89.799 23.667,89.138 24.244,89.638 23.998 C 89.852 23.893,90.152 23.702,90.305 23.574 C 90.458 23.445,90.733 23.232,90.916 23.100 C 91.100 22.968,91.193 22.804,91.125 22.736 C 91.056 22.667,91.000 22.682,91.000 22.770 M383.384 22.986 C 383.457 23.464,383.667 23.626,383.667 23.204 C 383.667 23.011,383.591 22.807,383.499 22.750 C 383.404 22.690,383.354 22.791,383.384 22.986 M323.583 23.667 C 323.520 23.955,323.506 24.228,323.552 24.274 C 323.597 24.320,323.687 24.121,323.750 23.833 C 323.813 23.545,323.828 23.272,323.782 23.226 C 323.736 23.180,323.647 23.379,323.583 23.667 M375.408 23.750 C 375.473 24.117,375.600 24.492,375.690 24.583 C 375.797 24.693,375.823 24.665,375.765 24.500 C 375.716 24.363,375.640 24.035,375.595 23.771 C 375.551 23.508,375.464 23.245,375.402 23.188 C 375.340 23.130,375.342 23.383,375.408 23.750 M355.104 24.354 C 354.984 24.957,354.965 25.757,355.075 25.648 C 355.175 25.548,355.367 23.833,355.278 23.833 C 355.240 23.833,355.161 24.068,355.104 24.354 M383.669 24.181 C 383.671 24.402,383.746 24.696,383.836 24.833 C 383.951 25.009,383.968 24.910,383.892 24.500 C 383.761 23.781,383.666 23.646,383.669 24.181 M88.559 24.411 C 88.367 24.545,88.163 24.608,88.105 24.550 C 88.047 24.492,88.000 24.532,88.000 24.639 C 88.000 24.746,88.026 24.833,88.058 24.833 C 88.182 24.833,89.167 24.305,89.167 24.238 C 89.167 24.096,88.900 24.172,88.559 24.411 M331.343 24.333 C 331.324 24.471,331.281 24.724,331.249 24.897 C 331.209 25.109,331.244 25.156,331.359 25.041 C 331.452 24.948,331.495 24.694,331.453 24.478 C 331.412 24.261,331.363 24.196,331.343 24.333 M339.292 24.787 C 339.590 24.824,340.077 24.824,340.375 24.787 C 340.673 24.750,340.429 24.720,339.833 24.720 C 339.237 24.720,338.994 24.750,339.292 24.787 M341.500 24.897 C 341.500 24.932,341.688 24.997,341.917 25.041 C 342.146 25.085,342.333 25.056,342.333 24.977 C 342.333 24.898,342.146 24.833,341.917 24.833 C 341.688 24.833,341.500 24.862,341.500 24.897 M85.917 25.333 C 85.707 25.424,85.676 25.477,85.833 25.477 C 85.971 25.477,86.233 25.412,86.417 25.333 C 86.627 25.243,86.658 25.190,86.500 25.190 C 86.362 25.190,86.100 25.255,85.917 25.333 M309.833 26.057 C 309.421 26.511,309.233 26.785,309.417 26.667 C 309.789 26.428,310.746 25.346,310.647 25.277 C 310.612 25.252,310.246 25.604,309.833 26.057 M323.167 25.583 C 323.167 25.813,323.195 26.000,323.231 26.000 C 323.266 26.000,323.330 25.813,323.374 25.583 C 323.418 25.354,323.389 25.167,323.310 25.167 C 323.231 25.167,323.167 25.354,323.167 25.583 M343.060 25.282 C 343.123 25.346,343.342 25.421,343.546 25.449 C 343.840 25.490,343.865 25.467,343.667 25.336 C 343.384 25.150,342.883 25.105,343.060 25.282 M383.872 25.667 C 383.872 25.988,383.906 26.119,383.948 25.958 C 383.990 25.798,383.990 25.535,383.948 25.375 C 383.906 25.215,383.872 25.346,383.872 25.667 M333.234 26.759 L 332.750 27.184 333.199 26.986 C 333.446 26.877,333.688 26.686,333.736 26.561 C 333.857 26.245,333.789 26.272,333.234 26.759 M346.000 26.579 C 346.000 26.623,346.244 26.777,346.542 26.922 L 347.083 27.187 346.667 26.847 C 346.265 26.520,346.000 26.413,346.000 26.579 M317.602 27.078 C 317.450 27.310,317.384 27.500,317.456 27.500 C 317.618 27.500,318.050 26.827,317.951 26.729 C 317.911 26.689,317.754 26.846,317.602 27.078 M307.542 27.505 C 307.152 27.678,306.833 27.861,306.833 27.912 C 306.833 28.032,308.035 27.531,308.242 27.325 C 308.452 27.115,308.376 27.134,307.542 27.505 M322.833 28.028 C 322.833 28.501,322.863 28.858,322.898 28.819 C 323.038 28.670,323.108 27.167,322.975 27.167 C 322.897 27.167,322.833 27.554,322.833 28.028 M354.732 27.569 C 354.683 27.699,354.669 28.018,354.702 28.278 C 354.751 28.663,354.777 28.620,354.844 28.042 C 354.928 27.313,354.891 27.156,354.732 27.569 M316.951 28.100 C 316.786 28.320,316.712 28.500,316.785 28.500 C 316.931 28.500,317.391 27.834,317.303 27.750 C 317.274 27.722,317.115 27.879,316.951 28.100 M376.055 28.750 C 376.055 29.392,376.086 29.634,376.122 29.288 C 376.158 28.942,376.157 28.417,376.120 28.121 C 376.083 27.825,376.054 28.108,376.055 28.750 M348.590 28.697 C 349.769 29.929,349.800 29.967,349.917 30.334 C 349.975 30.517,350.097 30.667,350.187 30.667 C 350.278 30.667,350.222 30.445,350.062 30.175 C 349.716 29.590,348.094 27.833,347.899 27.833 C 347.824 27.833,348.135 28.222,348.590 28.697 M302.500 31.250 C 302.500 33.037,302.556 34.500,302.625 34.500 C 302.694 34.500,302.728 33.081,302.701 31.347 C 302.657 28.433,302.676 28.188,302.951 28.116 C 303.185 28.056,303.168 28.034,302.875 28.019 L 302.500 28.000 302.500 31.250 M322.712 29.833 C 322.712 30.246,322.745 30.415,322.784 30.208 C 322.824 30.002,322.824 29.665,322.784 29.458 C 322.745 29.252,322.712 29.421,322.712 29.833 M384.209 29.750 C 384.211 30.117,384.245 30.247,384.285 30.040 C 384.324 29.832,384.323 29.532,384.281 29.373 C 384.239 29.214,384.207 29.383,384.209 29.750 M58.042 29.615 C 58.202 29.657,58.465 29.657,58.625 29.615 C 58.785 29.573,58.654 29.539,58.333 29.539 C 58.012 29.539,57.881 29.573,58.042 29.615 M56.833 29.810 C 56.833 29.889,57.021 29.918,57.250 29.874 C 57.479 29.830,57.667 29.766,57.667 29.731 C 57.667 29.695,57.479 29.667,57.250 29.667 C 57.021 29.667,56.833 29.731,56.833 29.810 M61.681 29.727 C 61.719 29.759,61.975 29.837,62.250 29.898 C 62.615 29.980,62.683 29.964,62.500 29.841 C 62.275 29.689,61.513 29.582,61.681 29.727 M106.133 29.867 C 106.289 30.022,106.378 30.022,106.533 29.867 C 106.689 29.711,106.644 29.667,106.333 29.667 C 106.022 29.667,105.978 29.711,106.133 29.867 M110.917 29.833 C 111.372 30.029,111.500 30.029,111.500 29.833 C 111.500 29.742,111.294 29.672,111.042 29.678 C 110.636 29.689,110.621 29.706,110.917 29.833 M80.500 30.000 C 80.157 30.110,80.142 30.136,80.417 30.148 C 80.600 30.155,80.862 30.089,81.000 30.000 C 81.292 29.811,81.089 29.811,80.500 30.000 M112.000 30.068 C 112.000 30.105,112.337 30.250,112.750 30.391 C 113.649 30.697,113.744 30.607,112.896 30.252 C 112.293 30.000,112.000 29.940,112.000 30.068 M54.875 30.496 C 54.485 30.672,54.167 30.855,54.167 30.900 C 54.167 30.995,55.446 30.443,55.613 30.276 C 55.783 30.106,55.639 30.149,54.875 30.496 M79.458 30.429 C 79.206 30.565,79.000 30.712,79.000 30.755 C 79.000 30.930,79.319 30.814,79.690 30.506 C 80.159 30.115,80.083 30.090,79.458 30.429 M376.000 32.139 C 376.000 33.254,376.059 34.167,376.130 34.167 C 376.287 34.167,376.269 30.380,376.111 30.222 C 376.050 30.161,376.000 31.024,376.000 32.139 M64.251 30.669 C 64.307 30.759,64.420 30.833,64.501 30.833 C 64.583 30.833,64.983 31.058,65.391 31.333 C 65.798 31.608,66.195 31.833,66.272 31.833 C 66.451 31.833,64.849 30.762,64.450 30.615 C 64.270 30.548,64.190 30.570,64.251 30.669 M102.958 31.096 C 102.615 31.321,102.333 31.543,102.333 31.590 C 102.333 31.735,103.262 31.204,103.491 30.928 C 103.776 30.585,103.704 30.607,102.958 31.096 M113.667 30.861 C 113.667 30.968,113.714 31.008,113.773 30.949 C 113.831 30.891,114.087 30.991,114.340 31.172 C 114.594 31.352,114.864 31.500,114.939 31.500 C 115.015 31.500,114.801 31.313,114.464 31.083 C 113.773 30.614,113.667 30.584,113.667 30.861 M53.542 31.227 C 53.335 31.329,53.167 31.470,53.167 31.540 C 53.167 31.770,53.443 31.672,53.750 31.333 C 54.084 30.965,54.077 30.961,53.542 31.227 M89.582 31.168 C 89.526 31.259,89.568 31.333,89.675 31.333 C 89.781 31.333,90.161 31.565,90.518 31.847 C 90.875 32.130,91.164 32.299,91.160 32.222 C 91.148 31.972,89.688 30.997,89.582 31.168 M315.561 31.584 C 316.169 31.901,316.323 31.903,315.907 31.589 C 315.729 31.454,315.471 31.342,315.333 31.340 C 315.196 31.337,315.298 31.447,315.561 31.584 M350.678 31.667 C 350.678 31.804,350.787 32.062,350.922 32.240 C 351.233 32.652,351.230 32.381,350.917 31.833 C 350.779 31.592,350.678 31.522,350.678 31.667 M115.417 31.975 C 115.692 32.144,116.104 32.506,116.333 32.779 C 116.563 33.051,116.862 33.336,117.000 33.411 C 117.138 33.486,116.840 33.124,116.339 32.607 C 115.838 32.090,115.313 31.667,115.172 31.667 C 115.030 31.668,115.139 31.805,115.417 31.975 M339.833 31.741 C 339.833 31.787,340.058 31.941,340.333 32.083 C 340.608 32.226,340.833 32.304,340.833 32.259 C 340.833 32.213,340.608 32.059,340.333 31.917 C 340.058 31.774,339.833 31.696,339.833 31.741 M66.688 32.245 C 66.814 32.426,67.104 32.766,67.333 32.999 C 67.563 33.233,67.959 33.685,68.215 34.004 C 68.471 34.323,68.600 34.416,68.503 34.212 C 68.405 34.007,67.905 33.407,67.392 32.878 C 66.879 32.349,66.562 32.065,66.688 32.245 M322.500 32.482 C 322.500 32.778,322.570 32.976,322.656 32.923 C 322.742 32.870,322.782 32.668,322.745 32.474 C 322.634 31.900,322.500 31.904,322.500 32.482 M51.521 32.975 C 51.143 33.427,50.833 33.845,50.833 33.904 C 50.833 33.963,51.077 33.728,51.375 33.381 C 51.673 33.034,52.029 32.662,52.166 32.555 C 52.304 32.448,52.370 32.314,52.313 32.257 C 52.256 32.200,51.899 32.523,51.521 32.975 M341.580 32.997 C 341.937 33.362,342.263 33.626,342.305 33.584 C 342.383 33.506,341.174 32.333,341.017 32.333 C 340.970 32.333,341.224 32.632,341.580 32.997 M91.672 32.780 C 91.681 33.014,92.167 33.577,92.167 33.353 C 92.167 33.238,92.054 33.030,91.917 32.893 C 91.779 32.755,91.669 32.704,91.672 32.780 M317.333 32.767 C 317.333 32.953,318.001 33.555,318.099 33.457 C 318.135 33.420,317.978 33.214,317.749 32.999 C 317.521 32.784,317.333 32.680,317.333 32.767 M333.833 32.960 C 332.652 34.288,332.557 34.548,333.667 33.417 C 334.072 33.004,334.331 32.670,334.243 32.673 C 334.155 32.676,333.971 32.806,333.833 32.960 M75.743 33.225 C 75.376 33.630,74.548 34.946,74.258 35.583 C 74.092 35.950,73.924 36.306,73.885 36.375 C 73.846 36.444,73.893 36.500,73.990 36.500 C 74.087 36.500,74.167 36.421,74.167 36.324 C 74.167 35.972,74.840 34.684,75.424 33.918 C 75.963 33.212,76.178 32.745,75.743 33.225 M92.500 33.746 C 92.500 33.888,93.525 35.500,93.616 35.500 C 93.648 35.500,93.550 35.256,93.397 34.958 C 93.083 34.345,92.500 33.558,92.500 33.746 M318.611 34.333 C 318.779 34.654,318.956 34.954,319.003 35.000 C 319.051 35.046,319.185 35.299,319.301 35.563 C 319.417 35.827,319.549 36.006,319.594 35.962 C 319.696 35.860,319.093 34.720,318.644 34.167 L 318.306 33.750 318.611 34.333 M384.209 34.417 C 384.211 34.783,384.245 34.914,384.285 34.706 C 384.324 34.499,384.323 34.199,384.281 34.040 C 384.239 33.880,384.207 34.050,384.209 34.417 M354.709 34.583 C 354.711 34.950,354.745 35.080,354.785 34.873 C 354.824 34.666,354.823 34.366,354.781 34.206 C 354.739 34.047,354.707 34.217,354.709 34.583 M50.272 34.708 L 49.972 35.250 50.316 34.833 C 50.620 34.464,50.756 34.167,50.619 34.167 C 50.593 34.167,50.437 34.410,50.272 34.708 M376.052 35.250 C 376.053 35.800,376.084 36.005,376.121 35.705 C 376.158 35.406,376.157 34.956,376.119 34.705 C 376.081 34.455,376.051 34.700,376.052 35.250 M307.997 34.990 C 308.499 35.167,308.941 35.281,308.978 35.244 C 309.072 35.150,308.369 34.897,307.667 34.772 C 307.272 34.701,307.379 34.772,307.997 34.990 M351.715 34.759 C 351.769 34.856,351.852 35.259,351.900 35.655 C 351.947 36.051,352.038 36.422,352.100 36.479 C 352.163 36.537,352.165 36.211,352.105 35.757 C 352.046 35.302,351.912 34.852,351.807 34.757 C 351.676 34.636,351.648 34.637,351.715 34.759 M118.346 35.500 C 118.345 35.740,118.815 36.694,118.827 36.477 C 118.831 36.419,118.724 36.119,118.590 35.811 C 118.456 35.502,118.346 35.362,118.346 35.500 M354.691 36.060 C 354.708 36.493,354.776 36.882,354.844 36.923 C 354.969 37.001,354.861 35.476,354.732 35.345 C 354.694 35.305,354.675 35.627,354.691 36.060 M309.667 35.569 C 309.667 35.619,310.017 36.018,310.445 36.455 C 311.112 37.137,311.166 37.167,310.826 36.667 C 310.607 36.346,310.368 36.058,310.295 36.027 C 310.221 35.996,310.050 35.859,309.914 35.723 C 309.778 35.587,309.667 35.518,309.667 35.569 M69.167 35.732 C 69.167 35.902,69.826 37.226,69.830 37.062 C 69.834 36.819,69.354 35.667,69.248 35.667 C 69.203 35.667,69.167 35.696,69.167 35.732 M343.430 36.000 C 343.554 36.464,343.633 36.589,343.736 36.486 C 343.775 36.448,343.697 36.229,343.563 36.000 L 343.319 35.583 343.430 36.000 M363.045 36.333 C 363.045 36.746,363.078 36.915,363.118 36.708 C 363.157 36.502,363.157 36.165,363.118 35.958 C 363.078 35.752,363.045 35.921,363.045 36.333 M49.281 36.730 C 49.218 36.894,49.171 37.152,49.177 37.305 C 49.184 37.489,49.242 37.447,49.349 37.181 C 49.437 36.960,49.484 36.701,49.452 36.606 C 49.420 36.511,49.343 36.567,49.281 36.730 M118.836 36.948 C 118.834 37.149,118.908 37.360,119.000 37.417 C 119.212 37.548,119.212 37.162,119.000 36.833 C 118.869 36.630,118.838 36.652,118.836 36.948 M343.723 36.889 C 343.784 37.057,343.833 37.417,343.833 37.690 C 343.833 37.963,343.901 38.145,343.983 38.094 C 344.142 37.995,343.948 36.884,343.738 36.695 C 343.670 36.634,343.663 36.721,343.723 36.889 M322.881 37.583 C 322.882 38.042,322.915 38.209,322.953 37.956 C 322.991 37.703,322.990 37.328,322.951 37.123 C 322.911 36.918,322.880 37.125,322.881 37.583 M94.181 37.333 C 94.176 37.563,94.244 37.862,94.333 38.000 C 94.545 38.328,94.545 37.743,94.333 37.250 C 94.202 36.945,94.189 36.952,94.181 37.333 M98.273 37.535 C 98.217 37.745,98.179 38.142,98.189 38.417 C 98.201 38.762,98.249 38.660,98.344 38.089 C 98.490 37.218,98.447 36.886,98.273 37.535 M320.023 37.417 C 320.023 37.600,320.088 37.900,320.167 38.083 L 320.310 38.417 320.310 38.083 C 320.310 37.900,320.245 37.600,320.167 37.417 L 320.023 37.083 320.023 37.417 M48.938 38.042 C 48.819 38.487,48.799 39.590,48.912 39.476 C 49.011 39.378,49.192 37.667,49.104 37.667 C 49.068 37.667,48.994 37.835,48.938 38.042 M352.224 39.209 C 352.207 39.759,352.249 39.971,352.346 39.818 C 352.527 39.532,352.548 38.549,352.375 38.443 C 352.306 38.400,352.238 38.745,352.224 39.209 M375.684 39.175 L 375.701 39.917 375.839 39.333 C 375.920 38.992,375.913 38.684,375.822 38.592 C 375.726 38.493,375.673 38.714,375.684 39.175 M344.055 39.917 C 344.055 40.558,344.086 40.800,344.122 40.455 C 344.158 40.109,344.157 39.584,344.120 39.288 C 344.083 38.992,344.054 39.275,344.055 39.917 M355.019 39.250 C 355.044 40.138,355.297 40.711,355.314 39.917 C 355.322 39.550,355.256 39.137,355.167 39.000 C 355.044 38.810,355.008 38.869,355.019 39.250 M73.167 39.417 C 73.167 39.646,73.231 39.833,73.310 39.833 C 73.389 39.833,73.418 39.646,73.374 39.417 C 73.330 39.188,73.266 39.000,73.231 39.000 C 73.195 39.000,73.167 39.188,73.167 39.417 M298.372 39.500 C 298.372 39.821,298.406 39.952,298.448 39.792 C 298.490 39.631,298.490 39.369,298.448 39.208 C 298.406 39.048,298.372 39.179,298.372 39.500 M320.487 39.958 C 320.566 40.534,320.578 40.545,320.633 40.105 C 320.666 39.841,320.627 39.560,320.547 39.480 C 320.463 39.396,320.437 39.600,320.487 39.958 M323.167 39.907 C 323.167 40.222,323.224 40.516,323.295 40.559 C 323.365 40.603,323.395 40.345,323.361 39.986 C 323.284 39.180,323.167 39.132,323.167 39.907 M94.638 40.167 C 94.603 40.533,94.633 40.833,94.704 40.833 C 94.775 40.833,94.833 40.533,94.833 40.167 C 94.833 39.800,94.804 39.500,94.768 39.500 C 94.731 39.500,94.673 39.800,94.638 40.167 M119.366 40.528 C 119.348 41.139,119.290 41.777,119.237 41.945 C 119.148 42.229,119.154 42.230,119.328 41.959 C 119.436 41.791,119.491 41.194,119.457 40.543 L 119.399 39.417 119.366 40.528 M311.881 40.583 C 311.882 41.042,311.915 41.209,311.953 40.956 C 311.991 40.703,311.990 40.328,311.951 40.123 C 311.911 39.918,311.880 40.125,311.881 40.583 M298.447 40.707 C 298.560 41.431,298.667 41.511,298.667 40.871 C 298.667 40.586,298.598 40.311,298.514 40.259 C 298.428 40.206,298.399 40.401,298.447 40.707 M73.167 40.927 C 73.167 41.161,73.235 41.311,73.318 41.260 C 73.401 41.208,73.430 41.016,73.382 40.833 C 73.262 40.375,73.167 40.416,73.167 40.927 M375.397 40.740 C 375.347 40.872,375.335 41.116,375.370 41.282 C 375.411 41.470,375.468 41.380,375.522 41.042 C 375.613 40.474,375.554 40.332,375.397 40.740 M355.333 41.177 C 355.333 41.457,355.398 41.646,355.478 41.597 C 355.612 41.514,355.539 40.667,355.397 40.667 C 355.362 40.667,355.333 40.896,355.333 41.177 M383.452 41.000 C 383.404 41.183,383.433 41.375,383.516 41.426 C 383.599 41.478,383.667 41.328,383.667 41.093 C 383.667 40.582,383.572 40.541,383.452 41.000 M48.846 41.448 C 48.839 41.833,48.893 42.184,48.965 42.228 C 49.038 42.273,49.070 42.034,49.036 41.697 C 48.945 40.774,48.861 40.664,48.846 41.448 M323.438 41.333 C 323.535 41.875,323.836 43.079,324.095 43.958 C 324.156 44.165,324.262 44.333,324.330 44.333 C 324.398 44.333,324.277 43.792,324.061 43.131 C 323.844 42.469,323.666 41.776,323.664 41.589 C 323.663 41.403,323.588 41.137,323.498 41.000 C 323.382 40.824,323.365 40.922,323.438 41.333 M320.438 41.375 C 320.299 41.896,320.309 42.201,320.464 42.106 C 320.596 42.024,320.727 41.000,320.605 41.000 C 320.569 41.000,320.494 41.169,320.438 41.375 M343.782 41.779 C 343.728 42.130,343.632 42.604,343.567 42.833 C 343.364 43.561,343.680 43.065,343.912 42.292 C 344.035 41.885,344.078 41.459,344.008 41.346 C 343.930 41.220,343.843 41.388,343.782 41.779 M352.039 42.333 C 352.039 42.654,352.073 42.785,352.115 42.625 C 352.157 42.465,352.157 42.202,352.115 42.042 C 352.073 41.881,352.039 42.012,352.039 42.333 M298.786 42.503 C 298.915 42.996,299.132 43.060,299.040 42.578 C 298.997 42.352,298.902 42.167,298.830 42.167 C 298.757 42.167,298.737 42.318,298.786 42.503 M375.019 42.361 C 375.009 42.514,374.957 42.777,374.904 42.945 C 374.813 43.234,374.818 43.235,374.999 42.953 C 375.103 42.790,375.155 42.527,375.114 42.370 C 375.046 42.112,375.037 42.111,375.019 42.361 M73.519 42.667 C 73.511 42.896,73.578 43.196,73.667 43.333 C 73.872 43.652,73.872 43.309,73.667 42.667 L 73.533 42.250 73.519 42.667 M94.224 43.000 C 94.128 43.361,94.107 43.620,94.178 43.576 C 94.326 43.485,94.566 42.510,94.466 42.410 C 94.429 42.374,94.321 42.639,94.224 43.000 M383.104 42.854 C 382.965 43.549,383.100 43.684,383.250 43.000 C 383.313 42.712,383.330 42.441,383.288 42.399 C 383.245 42.357,383.163 42.561,383.104 42.854 M355.669 42.764 C 355.671 42.940,355.748 43.196,355.841 43.333 C 355.964 43.516,355.980 43.448,355.898 43.083 C 355.761 42.471,355.666 42.337,355.669 42.764 M364.013 42.750 C 364.012 42.933,364.119 43.271,364.250 43.500 C 364.554 44.032,364.556 43.918,364.255 43.083 C 364.123 42.717,364.014 42.567,364.013 42.750 M299.173 43.312 C 299.165 43.608,300.203 45.500,300.374 45.500 C 300.446 45.500,300.307 45.187,300.066 44.805 C 299.824 44.423,299.526 43.879,299.403 43.597 C 299.280 43.314,299.177 43.186,299.173 43.312 M73.846 43.833 C 73.845 44.074,74.315 45.028,74.327 44.811 C 74.331 44.753,74.224 44.453,74.090 44.144 C 73.956 43.836,73.846 43.696,73.846 43.833 M356.014 43.917 C 356.009 44.100,356.078 44.362,356.167 44.500 C 356.381 44.831,356.381 44.415,356.167 43.917 L 356.023 43.583 356.014 43.917 M382.762 44.095 C 382.701 44.339,382.688 44.577,382.734 44.623 C 382.780 44.668,382.867 44.506,382.929 44.262 C 382.990 44.018,383.003 43.780,382.957 43.734 C 382.911 43.689,382.823 43.851,382.762 44.095 M69.262 44.359 C 69.015 44.855,68.907 45.315,69.078 45.144 C 69.208 45.014,69.676 43.833,69.598 43.833 C 69.557 43.833,69.406 44.070,69.262 44.359 M118.417 44.550 C 117.902 45.670,117.839 45.833,117.924 45.833 C 118.043 45.833,118.889 44.000,118.808 43.919 C 118.770 43.881,118.594 44.165,118.417 44.550 M364.589 44.333 C 364.711 44.773,364.951 45.110,365.058 44.989 C 365.093 44.949,364.976 44.692,364.798 44.417 C 364.503 43.960,364.485 43.953,364.589 44.333 M49.778 44.794 C 49.831 45.002,49.940 45.213,50.020 45.262 C 50.248 45.403,50.193 45.098,49.925 44.740 C 49.692 44.428,49.687 44.430,49.778 44.794 M319.861 44.991 C 319.764 45.271,319.746 45.500,319.823 45.500 C 319.955 45.500,320.191 44.638,320.088 44.533 C 320.061 44.506,319.959 44.712,319.861 44.991 M324.430 44.833 C 324.620 45.633,324.901 46.333,325.033 46.333 C 325.234 46.333,325.257 46.403,324.526 44.833 L 324.332 44.417 324.430 44.833 M342.360 45.167 C 342.156 45.442,342.065 45.667,342.157 45.667 C 342.249 45.667,342.441 45.442,342.583 45.167 C 342.726 44.892,342.817 44.667,342.786 44.667 C 342.755 44.667,342.563 44.892,342.360 45.167 M373.529 45.521 C 373.316 45.784,373.243 45.960,373.366 45.913 C 373.591 45.827,374.070 45.174,373.970 45.089 C 373.941 45.064,373.742 45.259,373.529 45.521 M93.105 45.708 L 92.806 46.250 93.149 45.833 C 93.454 45.464,93.589 45.167,93.453 45.167 C 93.427 45.167,93.270 45.410,93.105 45.708 M99.374 45.542 C 99.489 45.748,99.628 45.954,99.683 46.000 C 99.738 46.046,99.876 46.259,99.989 46.473 C 100.101 46.687,100.232 46.823,100.280 46.776 C 100.327 46.729,100.130 46.347,99.841 45.928 C 99.292 45.129,99.015 44.901,99.374 45.542 M365.376 45.605 C 366.001 46.338,366.704 47.019,366.768 46.954 C 366.836 46.887,365.215 45.167,365.084 45.167 C 365.039 45.167,365.170 45.364,365.376 45.605 M309.809 45.889 C 309.475 46.190,309.025 46.559,308.809 46.709 C 308.593 46.860,308.499 46.986,308.599 46.991 C 308.768 46.999,308.987 46.842,309.924 46.041 C 310.243 45.768,310.583 45.329,310.468 45.337 C 310.440 45.339,310.143 45.587,309.809 45.889 M382.223 45.708 C 382.076 45.944,381.967 46.500,382.068 46.500 C 382.104 46.500,382.212 46.275,382.308 46.000 C 382.489 45.482,382.449 45.346,382.223 45.708 M68.313 46.208 C 68.106 46.506,67.762 46.930,67.549 47.150 C 67.336 47.370,67.197 47.586,67.241 47.630 C 67.333 47.722,68.124 46.814,68.539 46.138 C 68.935 45.493,68.776 45.542,68.313 46.208 M319.574 45.934 C 319.519 46.108,319.363 46.456,319.228 46.708 C 319.092 46.960,319.038 47.167,319.107 47.167 C 319.177 47.167,319.143 47.257,319.033 47.367 C 318.923 47.477,318.833 47.643,318.833 47.737 C 318.833 48.012,319.253 47.311,319.562 46.521 C 319.719 46.120,319.808 45.753,319.761 45.705 C 319.713 45.658,319.629 45.761,319.574 45.934 M334.083 46.235 C 335.056 47.102,336.667 47.883,336.667 47.488 C 336.667 47.403,336.552 47.333,336.411 47.333 C 336.053 47.333,334.609 46.582,334.337 46.254 C 334.212 46.104,333.955 45.905,333.764 45.811 C 333.573 45.717,333.717 45.908,334.083 46.235 M75.020 46.208 C 75.303 46.742,77.818 49.238,77.945 49.111 C 78.003 49.052,77.833 48.840,77.567 48.638 C 76.770 48.034,75.167 46.316,75.167 46.066 C 75.167 45.938,75.089 45.833,74.994 45.833 C 74.883 45.833,74.892 45.967,75.020 46.208 M301.000 46.210 C 301.229 46.437,301.443 46.601,301.475 46.573 C 301.587 46.476,301.312 46.167,300.949 45.983 C 300.615 45.813,300.619 45.833,301.000 46.210 M350.750 46.622 C 350.264 47.765,350.265 47.853,350.753 46.946 C 350.991 46.503,351.163 46.073,351.135 45.990 C 351.106 45.907,350.933 46.192,350.750 46.622 M117.382 46.333 C 117.334 46.517,117.246 46.667,117.187 46.667 C 117.128 46.667,116.975 46.835,116.847 47.042 C 116.631 47.388,116.635 47.399,116.898 47.181 C 117.358 46.801,117.876 46.000,117.662 46.000 C 117.556 46.000,117.430 46.150,117.382 46.333 M92.372 46.667 C 92.258 46.850,92.221 47.000,92.292 47.000 C 92.362 47.000,92.513 46.850,92.628 46.667 C 92.742 46.483,92.779 46.333,92.708 46.333 C 92.638 46.333,92.487 46.483,92.372 46.667 M291.667 46.535 C 291.667 46.801,292.194 47.833,292.330 47.833 C 292.417 47.833,292.328 47.552,292.131 47.208 C 291.716 46.484,291.667 46.412,291.667 46.535 M301.667 46.630 C 301.667 46.785,302.499 47.223,302.600 47.122 C 302.631 47.091,302.434 46.934,302.162 46.773 C 301.889 46.613,301.667 46.548,301.667 46.630 M381.702 46.745 C 381.768 46.818,381.743 47.024,381.647 47.203 C 381.551 47.382,381.504 47.560,381.543 47.598 C 381.581 47.637,381.697 47.483,381.800 47.257 C 381.942 46.944,381.939 46.817,381.785 46.729 C 381.674 46.665,381.637 46.673,381.702 46.745 M51.758 47.682 C 52.120 48.057,52.754 48.585,53.167 48.856 C 53.579 49.127,53.697 49.176,53.429 48.966 C 53.161 48.755,52.587 48.227,52.154 47.792 C 51.721 47.356,51.306 47.000,51.233 47.000 C 51.159 47.000,51.395 47.307,51.758 47.682 M100.500 47.126 C 100.500 47.218,100.612 47.386,100.750 47.500 C 100.889 47.616,101.000 47.634,101.000 47.541 C 101.000 47.449,100.888 47.281,100.750 47.167 C 100.611 47.051,100.500 47.033,100.500 47.126 M307.542 47.225 C 307.244 47.322,307.000 47.462,307.000 47.534 C 307.000 47.732,307.188 47.687,307.833 47.333 C 308.471 46.984,308.379 46.950,307.542 47.225 M91.667 47.479 C 91.042 48.192,90.985 48.366,91.549 47.842 C 91.889 47.526,92.167 47.245,92.167 47.217 C 92.167 47.080,91.889 47.226,91.667 47.479 M367.729 47.451 C 367.793 47.515,368.049 47.588,368.298 47.612 C 368.688 47.649,368.704 47.634,368.417 47.506 C 368.011 47.324,367.567 47.289,367.729 47.451 M370.625 47.448 C 370.465 47.490,370.333 47.590,370.333 47.670 C 370.333 47.750,370.558 47.738,370.833 47.642 C 371.583 47.380,371.430 47.238,370.625 47.448 M116.143 47.819 C 115.927 47.994,115.793 48.182,115.847 48.235 C 115.900 48.288,116.119 48.145,116.334 47.916 C 116.798 47.422,116.696 47.371,116.143 47.819 M101.167 47.769 C 101.167 47.969,101.801 48.592,101.896 48.485 C 101.929 48.447,101.779 48.231,101.562 48.004 C 101.344 47.776,101.167 47.671,101.167 47.769 M66.079 48.599 L 65.250 49.365 66.167 48.649 C 66.671 48.255,67.115 47.910,67.153 47.883 C 67.191 47.856,67.151 47.833,67.065 47.833 C 66.978 47.833,66.535 48.178,66.079 48.599 M350.064 48.042 C 349.996 48.156,349.823 48.435,349.679 48.660 C 349.516 48.915,349.496 49.022,349.626 48.941 C 349.842 48.808,350.403 47.833,350.264 47.833 C 350.221 47.833,350.131 47.927,350.064 48.042 M381.021 48.272 C 380.735 48.899,380.924 48.965,381.242 48.349 C 381.389 48.065,381.444 47.833,381.364 47.833 C 381.285 47.833,381.130 48.031,381.021 48.272 M292.339 48.083 C 292.337 48.175,292.526 48.475,292.760 48.750 C 292.993 49.025,293.111 49.100,293.021 48.917 C 292.779 48.423,292.345 47.892,292.339 48.083 M318.398 48.422 C 318.246 48.654,318.154 48.877,318.195 48.917 C 318.235 48.957,318.399 48.767,318.560 48.495 C 318.916 47.892,318.784 47.833,318.398 48.422 M115.339 48.489 C 115.245 48.666,115.017 48.858,114.834 48.917 C 114.650 48.975,114.500 49.094,114.500 49.182 C 114.500 49.412,115.316 48.843,115.513 48.476 C 115.604 48.306,115.641 48.167,115.595 48.167 C 115.549 48.167,115.434 48.312,115.339 48.489 M102.180 48.612 C 102.167 48.796,103.922 50.000,104.203 50.000 C 104.275 50.000,104.333 49.913,104.333 49.806 C 104.333 49.699,104.285 49.660,104.225 49.719 C 104.097 49.847,102.833 49.166,102.833 48.969 C 102.833 48.895,102.727 48.833,102.597 48.833 C 102.467 48.833,102.323 48.740,102.277 48.625 C 102.219 48.480,102.189 48.476,102.180 48.612 M358.064 48.917 C 358.212 49.146,358.454 49.521,358.603 49.750 C 358.751 49.979,358.957 50.166,359.061 50.164 C 359.199 50.162,359.200 50.129,359.064 50.039 C 358.962 49.972,358.717 49.598,358.519 49.208 C 358.321 48.819,358.078 48.500,357.977 48.500 C 357.868 48.500,357.903 48.668,358.064 48.917 M380.253 49.600 C 380.097 49.930,379.342 50.833,378.575 51.606 C 377.809 52.379,377.397 52.859,377.659 52.672 C 378.739 51.903,381.139 49.000,380.695 49.000 C 380.609 49.000,380.410 49.270,380.253 49.600 M348.976 49.708 C 348.767 50.006,348.480 50.338,348.340 50.445 C 348.199 50.552,348.131 50.687,348.189 50.744 C 348.281 50.836,349.065 49.948,349.399 49.375 C 349.648 48.945,349.341 49.187,348.976 49.708 M88.875 49.597 C 88.577 49.728,88.333 49.868,88.333 49.908 C 88.333 50.031,89.327 49.645,89.427 49.484 C 89.538 49.304,89.554 49.301,88.875 49.597 M113.610 49.603 C 113.350 49.744,113.169 49.891,113.208 49.930 C 113.286 50.008,114.333 49.519,114.333 49.404 C 114.333 49.276,114.091 49.343,113.610 49.603 M293.317 49.583 C 293.555 50.031,294.159 50.730,294.239 50.649 C 294.274 50.613,294.041 50.283,293.721 49.917 C 293.402 49.550,293.220 49.400,293.317 49.583 M326.667 49.565 C 326.667 49.601,326.938 49.919,327.269 50.273 L 327.872 50.917 327.339 50.208 C 326.854 49.565,326.667 49.385,326.667 49.565 M317.003 50.300 C 315.945 51.446,315.783 51.757,316.751 50.787 C 317.280 50.257,317.681 49.792,317.643 49.754 C 317.604 49.715,317.317 49.961,317.003 50.300 M104.590 50.177 C 104.693 50.344,105.500 50.479,105.500 50.329 C 105.500 50.261,105.279 50.172,105.009 50.132 C 104.739 50.093,104.550 50.113,104.590 50.177 M62.708 50.339 C 62.131 50.570,62.264 50.673,62.875 50.467 C 63.173 50.366,63.448 50.257,63.486 50.225 C 63.622 50.111,63.078 50.190,62.708 50.339 M359.338 50.631 C 359.344 50.788,360.513 52.043,360.585 51.971 C 360.616 51.940,360.347 51.599,359.987 51.214 C 359.628 50.828,359.335 50.566,359.338 50.631 M58.167 50.869 C 58.167 50.941,58.404 51.000,58.694 51.000 C 58.985 51.000,59.172 50.949,59.110 50.888 C 58.950 50.728,58.167 50.713,58.167 50.869 M82.667 50.862 C 82.667 50.938,82.892 51.000,83.167 51.000 C 83.442 51.000,83.667 50.971,83.667 50.936 C 83.667 50.900,83.442 50.838,83.167 50.798 C 82.892 50.757,82.667 50.786,82.667 50.862 M84.742 50.849 C 84.464 50.958,84.482 50.978,84.865 50.988 C 85.112 50.995,85.352 50.938,85.399 50.861 C 85.507 50.687,85.171 50.682,84.742 50.849 M108.607 50.871 C 108.651 50.942,108.994 51.000,109.371 51.000 C 109.747 51.000,110.001 50.945,109.934 50.879 C 109.771 50.715,108.506 50.708,108.607 50.871 M328.203 51.417 C 328.450 51.646,328.706 51.833,328.772 51.833 C 328.838 51.833,328.715 51.646,328.500 51.417 C 328.285 51.188,328.029 51.000,327.931 51.000 C 327.833 51.000,327.956 51.188,328.203 51.417 M296.018 52.390 C 296.420 52.697,296.938 53.044,297.167 53.162 L 297.583 53.377 297.250 53.041 C 297.067 52.856,296.879 52.715,296.833 52.727 C 296.787 52.739,296.480 52.543,296.151 52.291 C 295.821 52.039,295.492 51.833,295.419 51.833 C 295.345 51.833,295.615 52.084,296.018 52.390 M314.542 52.424 C 314.060 52.739,313.667 53.044,313.667 53.101 C 313.667 53.158,313.873 53.072,314.125 52.909 C 315.297 52.152,315.731 51.834,315.580 51.842 C 315.490 51.846,315.023 52.108,314.542 52.424 M360.946 52.348 C 361.053 52.477,361.391 52.721,361.696 52.889 L 362.250 53.194 361.833 52.842 C 361.242 52.343,360.683 52.031,360.946 52.348 M345.367 53.072 C 344.534 53.661,344.503 53.757,345.290 53.315 C 345.679 53.096,345.998 52.860,345.999 52.792 C 346.000 52.625,345.998 52.626,345.367 53.072 M298.667 53.917 C 298.896 54.048,299.196 54.155,299.333 54.154 C 299.471 54.154,299.331 54.044,299.023 53.910 C 298.313 53.602,298.122 53.606,298.667 53.917 M332.833 54.305 C 332.971 54.390,333.271 54.510,333.500 54.571 C 333.790 54.649,333.840 54.635,333.667 54.528 C 333.529 54.443,333.229 54.324,333.000 54.262 C 332.710 54.185,332.660 54.198,332.833 54.305 M365.000 54.583 C 365.321 54.707,365.696 54.808,365.833 54.808 C 365.971 54.808,365.821 54.707,365.500 54.583 C 365.179 54.460,364.804 54.359,364.667 54.359 C 364.529 54.359,364.679 54.460,365.000 54.583 M308.583 54.833 C 308.373 54.924,308.342 54.977,308.500 54.977 C 308.637 54.977,308.900 54.912,309.083 54.833 C 309.293 54.743,309.324 54.690,309.167 54.690 C 309.029 54.690,308.767 54.755,308.583 54.833 " stroke="none" fill="#d41c3c" fill-rule="evenodd"></path></g></svg>